<svg width="293" height="41" viewBox="0 0 293 41" fill="none" xmlns="http://www.w3.org/2000/svg">
<g filter="url(#filter0_d_175_590)">
<rect x="1" y="0.509766" width="38" height="38" rx="4" fill="white" shape-rendering="crispEdges"/>
<rect x="1.5" y="1.00977" width="37" height="37" rx="3.5" stroke="#878787" stroke-linecap="square" shape-rendering="crispEdges"/>
<g clip-path="url(#clip0_175_590)">
<g clip-path="url(#clip1_175_590)">
<path d="M23.2137 15.7059L21.715 10.8177L21.6806 10.7096C21.1393 9.16149 18.8837 9.07024 18.3256 10.6696L16.7568 15.7059H11.8018L11.6956 15.709C10.0462 15.8002 9.36496 17.9946 10.7237 19.0134L14.7475 21.9821L12.8868 27.0996L12.8556 27.194C12.3587 28.8346 14.2462 30.199 15.6493 29.1459L20.0375 25.8877L24.3931 29.1471C25.815 30.2134 27.6481 28.8146 27.1818 27.1834L27.15 27.0859L25.2256 21.9771L29.2368 19.019C30.6287 17.9752 29.9343 15.7065 28.1668 15.7065L23.2137 15.7059ZM19.9912 13.7246L20.9943 16.9946L21.0393 17.1165C21.3312 17.8271 22 18.2065 22.7 18.2065L26.1287 18.2059L23.3062 20.2877L23.205 20.3746C22.6512 20.8796 22.455 21.6334 22.68 22.309L23.9562 25.6971L21.1156 23.5721C20.5218 23.0971 19.6718 23.0971 19.0175 23.5334L18.9656 23.5696L16.0393 25.7421L17.2768 22.3402L17.3125 22.2215C17.5012 21.509 17.2612 20.7652 16.7012 20.3171L13.8393 18.2052H17.2687C18.0606 18.2052 18.7406 17.8115 18.9812 16.9709L19.9912 13.7246Z" fill="#706E6B"/>
</g>
</g>
</g>
<g filter="url(#filter1_d_175_590)">
<rect x="43" y="0.509766" width="38" height="38" rx="4" fill="white" shape-rendering="crispEdges"/>
<rect x="43.5" y="1.00977" width="37" height="37" rx="3.5" stroke="#878787" stroke-linecap="square" shape-rendering="crispEdges"/>
<g clip-path="url(#clip2_175_590)">
<path d="M63.5 20.6764H69.9167C70.1667 20.6764 70.5 20.4264 70.5 20.0931V18.9264C70.5 18.5931 70.1667 18.3431 69.9167 18.3431H63.5C63.3333 18.3431 63.1667 18.1764 63.1667 18.0098V11.5931C63.1667 11.3431 62.9167 11.0098 62.5833 11.0098H61.4167C61.0833 11.0098 60.8333 11.3431 60.8333 11.5931V18.0098C60.8333 18.1764 60.6667 18.3431 60.5 18.3431H54.0833C53.8333 18.3431 53.5 18.5931 53.5 18.9264V20.0931C53.5 20.4264 53.8333 20.6764 54.0833 20.6764H60.5C60.6667 20.6764 60.8333 20.8431 60.8333 21.0098V27.4264C60.8333 27.6764 61.0833 28.0098 61.4167 28.0098H62.5833C62.9167 28.0098 63.1667 27.6764 63.1667 27.4264V21.0098C63.1667 20.8431 63.3333 20.6764 63.5 20.6764Z" fill="#585858"/>
</g>
</g>
<defs>
<filter id="filter0_d_175_590" x="0" y="0.509766" width="40" height="40" filterUnits="userSpaceOnUse" color-interpolation-filters="sRGB">
<feFlood flood-opacity="0" result="BackgroundImageFix"/>
<feColorMatrix in="SourceAlpha" type="matrix" values="0 0 0 0 0 0 0 0 0 0 0 0 0 0 0 0 0 0 127 0" result="hardAlpha"/>
<feOffset dy="1"/>
<feGaussianBlur stdDeviation="0.5"/>
<feComposite in2="hardAlpha" operator="out"/>
<feColorMatrix type="matrix" values="0 0 0 0 0.423529 0 0 0 0 0.419608 0 0 0 0 0.419608 0 0 0 1 0"/>
<feBlend mode="normal" in2="BackgroundImageFix" result="effect1_dropShadow_175_590"/>
<feBlend mode="normal" in="SourceGraphic" in2="effect1_dropShadow_175_590" result="shape"/>
</filter>
<filter id="filter1_d_175_590" x="42" y="0.509766" width="40" height="40" filterUnits="userSpaceOnUse" color-interpolation-filters="sRGB">
<feFlood flood-opacity="0" result="BackgroundImageFix"/>
<feColorMatrix in="SourceAlpha" type="matrix" values="0 0 0 0 0 0 0 0 0 0 0 0 0 0 0 0 0 0 127 0" result="hardAlpha"/>
<feOffset dy="1"/>
<feGaussianBlur stdDeviation="0.5"/>
<feComposite in2="hardAlpha" operator="out"/>
<feColorMatrix type="matrix" values="0 0 0 0 0.423529 0 0 0 0 0.419608 0 0 0 0 0.419608 0 0 0 1 0"/>
<feBlend mode="normal" in2="BackgroundImageFix" result="effect1_dropShadow_175_590"/>
<feBlend mode="normal" in="SourceGraphic" in2="effect1_dropShadow_175_590" result="shape"/>
</filter>
<clipPath id="clip0_175_590">
<rect width="20" height="20" fill="white" transform="translate(10 9.50977)"/>
</clipPath>
<clipPath id="clip1_175_590">
<rect width="20" height="20" fill="white" transform="translate(10 9.50977)"/>
</clipPath>
<clipPath id="clip2_175_590">
<rect width="20" height="20" fill="white" transform="translate(52 9.50977)"/>
</clipPath>
</defs>
</svg>
