<svg width="87" height="87" viewBox="0 0 87 87" fill="none" xmlns="http://www.w3.org/2000/svg">
<path d="M12.1665 2.71875C7.25375 2.71875 3.68947 6.72891 2.79772 11.2448L2.795 11.2719L2.78956 11.2964C2.5865 12.4144 2.81795 13.5677 3.43662 14.5208C4.05106 15.4561 5.1739 16.3125 6.67194 16.3125H16.3072L16.1767 73.5911V73.5966C16.1803 76.4364 17.31 79.1589 19.3181 81.167C21.3262 83.1751 24.0487 84.3048 26.8886 84.3084H69.4914C69.7089 84.3084 69.9264 84.2976 70.1357 84.2758C80.5485 84.129 83.0226 80.0264 84.0748 75.9619C84.2131 75.3581 84.2128 74.7308 84.0738 74.1271C83.9349 73.5234 83.661 72.9591 83.2727 72.4764C82.7759 71.8798 82.1517 71.402 81.446 71.0783C80.7402 70.7546 79.9709 70.5932 79.1946 70.6059H75.9892V14.8172C75.9892 11.6157 74.7174 8.54532 72.4536 6.28152C70.1898 4.01773 67.1194 2.74594 63.9179 2.74594H26.1001V2.71875H12.1665ZM21.7447 16.3125H21.7501V13.5938C21.7498 11.7056 21.3085 9.8437 20.4614 8.15625H20.6626V8.18344H63.9179C65.6773 8.18344 67.3646 8.88235 68.6087 10.1264C69.8528 11.3705 70.5517 13.0578 70.5517 14.8172V70.6059H39.1501C38.0604 70.5578 36.9866 70.8814 36.1049 71.5235C35.2232 72.1657 34.5857 73.0884 34.2972 74.1403C33.9687 75.3366 33.3059 76.4144 32.3867 77.2475C31.4675 78.0805 30.3298 78.6342 29.1071 78.8438V78.8709H26.8886C25.4913 78.8674 24.1522 78.3109 23.1639 77.3231C22.1757 76.3353 21.6185 74.9966 21.6142 73.5993L21.7447 16.3261V16.3125Z" fill="#3DBBEC"/>
<path d="M21.7452 16.3125H21.7506V13.5938C21.7502 11.7056 21.309 9.8437 20.4619 8.15625H20.6631V8.18344H63.9184C65.6778 8.18344 67.3651 8.88235 68.6092 10.1264C69.8533 11.3705 70.5522 13.0578 70.5522 14.8172V70.6059H39.1506C38.0609 70.5578 36.9871 70.8814 36.1054 71.5235C35.2236 72.1657 34.5862 73.0884 34.2976 74.1403C33.9691 75.3366 33.3064 76.4144 32.3872 77.2475C31.4679 78.0805 30.3303 78.6342 29.1075 78.8437V78.8709H26.889C25.4918 78.8673 24.1527 78.3109 23.1644 77.3231C22.1761 76.3353 21.619 74.9966 21.6147 73.5993L21.7452 16.3261V16.3125Z" fill="#C2E8FF"/>
<path d="M66.273 47C66.273 49.3869 65.296 51.6761 63.5571 53.364C61.8181 55.0518 59.4595 56 57.0003 56C54.541 56 52.1824 55.0518 50.4435 53.364C48.7045 51.6761 47.7275 49.3869 47.7275 47C47.7275 44.6131 48.7045 42.3239 50.4435 40.636C52.1824 38.9482 54.541 38 57.0003 38C59.4595 38 61.8181 38.9482 63.5571 40.636C65.296 42.3239 66.273 44.6131 66.273 47Z" fill="#E7A536"/>
<path d="M61.2497 60.1625C60.6122 60.1625 60.1872 59.9562 59.5497 59.75L56.9997 58.7188L54.4497 59.75C54.0247 59.9562 53.3872 60.1625 52.7497 60.1625C52.3247 60.1625 52.1122 60.1625 51.6872 59.9563L50.6247 68L56.9997 63.875L63.3747 68L62.0997 59.9563C61.8872 60.1625 61.4622 60.1625 61.2497 60.1625ZM67.4122 47.1687C67.1997 46.7563 67.1997 46.1375 67.4122 45.725L68.6872 43.25C69.1122 42.425 68.6872 41.3938 67.6247 40.9813L64.8622 39.95C64.4372 39.7438 64.0122 39.3313 63.7997 38.9188L62.7372 36.2375C62.5247 35.4125 61.8872 35 61.2497 35C61.0372 35 60.6122 35 60.3997 35.2062L57.6372 36.4438H56.9997C56.7872 36.4438 56.5747 36.4438 56.3622 36.2375L53.5997 35.2062C53.3872 35 52.9622 35 52.7497 35C52.1122 35 51.4747 35.4125 51.0497 36.0312L49.9872 38.9188C49.9872 39.3313 49.5622 39.7438 49.1372 39.95L46.1622 40.9813C45.3122 41.1875 44.8872 42.2188 45.3122 43.25L46.5872 45.9313C46.7997 46.3438 46.7997 46.9625 46.5872 47.375L45.3122 49.85C44.8872 50.675 45.3122 51.7063 46.3747 52.1187L49.1372 53.15C49.5622 53.3563 49.9872 53.7688 50.1997 54.1812L51.2622 56.8625C51.4747 57.6875 52.1122 58.1 52.7497 58.1C52.9622 58.1 53.1747 58.1 53.3872 57.8938L56.1497 56.6562C56.3622 56.6562 56.5747 56.45 56.7872 56.45C56.9997 56.45 57.2122 56.45 57.4247 56.6562L60.1872 57.8938C60.3997 58.1 60.6122 58.1 60.8247 58.1C61.4622 58.1 62.0997 57.6875 62.5247 57.0688L63.5872 54.3875C63.7997 53.975 64.2247 53.5625 64.6497 53.3562L67.4122 52.325C68.2622 51.9125 68.8997 50.8813 68.4747 50.0563L67.4122 47.1687ZM56.9997 54.8C52.3247 54.8 48.4997 51.0875 48.4997 46.55C48.4997 42.0125 52.3247 38.3 56.9997 38.3C61.6747 38.3 65.4997 42.0125 65.4997 46.55C65.4997 51.0875 61.6747 54.8 56.9997 54.8Z" fill="#EBBC48"/>
<path d="M61.25 60.1625C60.6125 60.1625 60.1875 59.9562 59.55 59.75L57 58.7188L54.45 59.75C54.025 59.9562 53.3875 60.1625 52.75 60.1625C52.325 60.1625 52.1125 60.1625 51.6875 59.9563L50.625 68L57 63.875L63.375 68L62.1 59.9563C61.8875 60.1625 61.4625 60.1625 61.25 60.1625Z" fill="#E7A536"/>
<path d="M63.375 46.55C63.375 48.1911 62.7034 49.7649 61.5078 50.9253C60.3123 52.0857 58.6908 52.7376 57 52.7376C55.3092 52.7376 53.6877 52.0857 52.4922 50.9253C51.2966 49.7649 50.625 48.1911 50.625 46.55C50.625 44.909 51.2966 43.3352 52.4922 42.1748C53.6877 41.0144 55.3092 40.3625 57 40.3625C58.6908 40.3625 60.3123 41.0144 61.5078 42.1748C62.7034 43.3352 63.375 44.909 63.375 46.55Z" fill="#F9E17D"/>
<path d="M56.9996 48.781L59.2482 49.932C59.66 50.1429 60.1639 49.8311 60.0555 49.4368L59.4595 47.2724L61.448 45.8142C61.811 45.5482 61.616 45.0438 61.1392 45.0117L58.5222 44.8237L57.4981 42.7786C57.3139 42.4071 56.6854 42.4071 56.5012 42.7786L55.4771 44.8191L52.8601 45.0071C52.3833 45.0392 52.1882 45.5436 52.5513 45.8096L54.5398 47.2678L53.9438 49.4322C53.8354 49.8265 54.3393 50.1383 54.7511 49.9274L56.9996 48.781Z" fill="#E7A536"/>
<path d="M26.8848 15.7307H57.4649M26.8848 28.8365H54.2117M26.8848 41.9423H40.8271M26.8848 55.3269H39.7117" stroke="#00A1E0" stroke-width="2.5" stroke-linecap="round"/>
</svg>
