<svg width="95" height="95" viewBox="0 0 95 95" fill="none" xmlns="http://www.w3.org/2000/svg">
<path d="M34.123 75.6778C34.6919 76.2818 35.2568 76.8819 35.7887 77.6445V79.0683H43.247V77.6445C43.1135 76.5367 42.8787 74.5409 42.8577 73.9861C42.8296 73.2054 41.782 71.7826 41.782 71.7826L38.5661 67.7288C38.5661 67.7288 37.656 66.7675 37.1352 65.7019C36.6135 64.6353 35.5057 65.9769 35.3592 66.9361C35.2107 67.8954 35.4916 68.4011 35.4916 68.4011L37.3279 72.0515C37.3279 72.0515 35.1986 69.1346 34.5374 67.9626C34.2023 67.3686 34.1089 66.1103 34.0036 64.7045C33.9022 63.3349 33.7899 61.8248 33.4337 60.6508C32.7112 58.2727 30.6221 58.8677 30.2599 59.9313C29.8987 60.9939 29.9799 68.0168 30.1114 69.1878C30.2147 70.1049 30.7676 71.0019 31.3907 72.0134C31.5633 72.2943 31.7419 72.5833 31.9175 72.8833C32.6159 74.0794 33.3724 74.8831 34.123 75.6778ZM60.336 77.6445C60.8678 76.8819 61.4327 76.2818 62.0017 75.6778C62.7522 74.8831 63.5088 74.0794 64.2081 72.8833C64.3827 72.5823 64.5613 72.2943 64.7339 72.0144C65.357 71.0029 65.9099 70.1049 66.0133 69.1878C66.1447 68.0168 66.227 60.9939 65.8648 59.9313C65.5025 58.8677 63.4135 58.2727 62.691 60.6518C62.3358 61.8258 62.2234 63.3349 62.1211 64.7045C62.0157 66.1103 61.9224 67.3686 61.5872 67.9626C60.926 69.1356 58.7958 72.0515 58.7958 72.0515L60.633 68.4011C60.633 68.4011 60.914 67.8954 60.7665 66.9361C60.619 65.9769 59.5112 64.6353 58.9904 65.7019C58.4687 66.7675 57.5586 67.7288 57.5586 67.7288L54.3426 71.7826C54.3426 71.7826 53.2951 73.2054 53.267 73.9861C53.2469 74.5409 53.0111 76.5367 52.8777 77.6445V79.0683H60.336V77.6445ZM50.0681 84.0853C50.0681 84.3515 50.1739 84.6067 50.362 84.7949C50.5502 84.983 50.8054 85.0888 51.0715 85.0888H59.0988C59.3649 85.0888 59.6201 84.983 59.8083 84.7949C59.9965 84.6067 60.1022 84.3515 60.1022 84.0853V82.0785C60.1022 81.8124 59.9965 81.5572 59.8083 81.369C59.6201 81.1808 59.3649 81.0751 59.0988 81.0751H51.0715C50.8054 81.0751 50.5502 81.1808 50.362 81.369C50.1739 81.5572 50.0681 81.8124 50.0681 82.0785V84.0853ZM46.0565 84.0853C46.0565 84.3515 45.9508 84.6067 45.7626 84.7949C45.5744 84.983 45.3192 85.0888 45.0531 85.0888H37.0259C36.7597 85.0888 36.5045 84.983 36.3163 84.7949C36.1282 84.6067 36.0224 84.3515 36.0224 84.0853V82.0785C36.0224 81.8124 36.1282 81.5572 36.3163 81.369C36.5045 81.1808 36.7597 81.0751 37.0259 81.0751H45.0531C45.3192 81.0751 45.5744 81.1808 45.7626 81.369C45.9508 81.5572 46.0565 81.8124 46.0565 82.0785V84.0853Z" fill="#00A1E0"/>
<path d="M32.8051 24.5758C33.0463 24.5758 33.3153 24.6129 33.6122 24.6871C33.909 24.7613 34.2059 24.8634 34.5028 24.9932C34.7996 25.1231 35.0965 25.2437 35.3934 25.3551C35.6902 25.4664 35.9593 25.5777 36.2005 25.689L35.7552 25.7447C35.6067 25.7633 35.449 25.7725 35.282 25.7725C34.9666 25.7725 34.679 25.7261 34.4193 25.6334C34.1595 25.5406 33.9183 25.42 33.6957 25.2716C33.473 25.1231 33.2504 25.0118 33.0277 24.9376C32.8051 24.8634 32.601 24.8077 32.4154 24.7706C32.2299 24.7706 32.0629 24.8077 31.9145 24.8819C31.766 24.9561 31.6176 25.0396 31.4692 25.1324C31.4692 25.0582 31.4042 25.0211 31.2743 25.0211C31.4042 24.8912 31.6454 24.7892 31.9979 24.7149C32.3505 24.6407 32.6195 24.5943 32.8051 24.5758ZM36.5623 25.8282C37.323 25.8282 38.0188 25.9581 38.6496 26.2178C38.3899 26.3106 38.1301 26.3848 37.8704 26.4405C37.6106 26.4961 37.3416 26.5333 37.0632 26.5518C36.6922 26.5518 36.3582 26.5147 36.0613 26.4405C36.1541 26.292 36.2469 26.1993 36.3396 26.1622C36.4324 26.1251 36.5066 26.0137 36.5623 25.8282ZM47.5 0.000713624C50.1161 0.000713624 52.6302 0.343967 55.0423 1.03047C57.4543 1.71698 59.718 2.67252 61.8331 3.8971C63.9483 5.12168 65.878 6.61529 67.6221 8.37794C69.3661 10.1406 70.8505 12.061 72.0751 14.139C73.2996 16.2171 74.2645 18.4807 74.9695 20.9299C75.6746 23.379 76.0178 25.9024 75.9993 28.5C75.9993 31.1161 75.656 33.6302 74.9695 36.0423C74.283 38.4543 73.3275 40.718 72.1029 42.8331C70.8783 44.9483 69.3847 46.878 67.6221 48.6221C65.8594 50.3661 63.939 51.8505 61.861 53.0751C59.7829 54.2996 57.5193 55.2645 55.0701 55.9695C52.621 56.6746 50.0976 57.0178 47.5 56.9993C44.8839 56.9993 42.3698 56.656 39.9577 55.9695C37.5457 55.283 35.282 54.3275 33.1669 53.1029C31.0517 51.8783 29.122 50.3847 27.3779 48.6221C25.6338 46.8594 24.1495 44.939 22.9249 42.861C21.7004 40.7829 20.7355 38.5193 20.0305 36.0701C19.3254 33.621 18.9822 31.0976 19.0007 28.5C19.0007 25.8839 19.344 23.3698 20.0305 20.9577C20.717 18.5457 21.6725 16.282 22.8971 14.1669C24.1217 12.0517 25.6153 10.122 27.3779 8.37794C29.1406 6.63385 31.061 5.14951 33.139 3.92493C35.2171 2.70035 37.4807 1.73553 39.9299 1.03047C42.379 0.325413 44.9024 -0.0178406 47.5 0.000713624Z" fill="#00A1E0"/>
<path d="M32.8051 24.5758C33.0463 24.5758 33.3153 24.6129 33.6122 24.6871C33.909 24.7613 34.2059 24.8634 34.5028 24.9933C34.7996 25.1231 35.0965 25.2437 35.3934 25.3551C35.6902 25.4664 35.9593 25.5777 36.2005 25.689L35.7552 25.7447C35.6067 25.7633 35.449 25.7725 35.282 25.7725C34.9666 25.7725 34.679 25.7261 34.4193 25.6334C34.1595 25.5406 33.9183 25.42 33.6957 25.2716C33.473 25.1231 33.2504 25.0118 33.0277 24.9376C32.8051 24.8634 32.601 24.8077 32.4154 24.7706C32.2299 24.7706 32.0629 24.8077 31.9145 24.8819C31.766 24.9561 31.6176 25.0396 31.4692 25.1324C31.4692 25.0582 31.4042 25.0211 31.2743 25.0211C31.4042 24.8912 31.6454 24.7892 31.9979 24.7149C32.3505 24.6407 32.6195 24.5943 32.8051 24.5758ZM36.5623 25.8282C37.323 25.8282 38.0188 25.9581 38.6496 26.2178C38.3899 26.3106 38.1301 26.3848 37.8704 26.4405C37.6106 26.4961 37.3416 26.5333 37.0632 26.5518C36.6922 26.5518 36.3582 26.5147 36.0613 26.4405C36.1541 26.292 36.2469 26.1993 36.3396 26.1622C36.4324 26.1251 36.5066 26.0137 36.5623 25.8282ZM47.5 0.000713624C50.1161 0.000713624 52.6302 0.343967 55.0423 1.03047C57.4543 1.71698 59.718 2.67252 61.8331 3.8971C63.9483 5.12168 65.878 6.61529 67.6221 8.37794C69.3662 10.1406 70.8505 12.061 72.0751 14.139C73.2996 16.2171 74.2645 18.4807 74.9695 20.9299C75.6746 23.379 76.0178 25.9024 75.9993 28.5C75.9993 31.1161 75.656 33.6302 74.9695 36.0423C74.283 38.4543 73.3275 40.718 72.1029 42.8331C70.8783 44.9483 69.3847 46.878 67.6221 48.6221C65.8594 50.3662 63.939 51.8505 61.861 53.0751C59.7829 54.2996 57.5193 55.2645 55.0701 55.9695C52.621 56.6746 50.0976 57.0178 47.5 56.9993C44.8839 56.9993 42.3698 56.656 39.9577 55.9695C37.5457 55.283 35.282 54.3275 33.1669 53.1029C31.0517 51.8783 29.122 50.3847 27.3779 48.6221C25.6338 46.8594 24.1495 44.939 22.9249 42.861C21.7004 40.7829 20.7355 38.5193 20.0305 36.0701C19.3254 33.621 18.9822 31.0976 19.0007 28.5C19.0007 25.8839 19.344 23.3698 20.0305 20.9577C20.717 18.5457 21.6725 16.282 22.8971 14.1669C24.1217 12.0517 25.6153 10.122 27.3779 8.37794C29.1406 6.63385 31.061 5.14951 33.139 3.92493C35.2171 2.70035 37.4807 1.73553 39.9299 1.03047C42.379 0.325413 44.9024 -0.0178406 47.5 0.000713624ZM68.7075 15.4471C68.4477 15.0389 68.188 14.6493 67.9282 14.2782C67.6684 13.9071 67.3994 13.5267 67.1211 13.1371C67.084 13.3041 67.0376 13.4247 66.9819 13.4989C66.9263 13.5731 66.8892 13.7401 66.8706 13.9999C66.8706 14.1669 66.9356 14.3246 67.0654 14.473C67.1953 14.6214 67.3623 14.7699 67.5664 14.9183C67.7705 15.0667 67.9746 15.1781 68.1787 15.2523C68.3828 15.3265 68.559 15.3914 68.7075 15.4471ZM66.7871 12.7196C66.7871 12.8681 66.7593 12.9701 66.7036 13.0258H66.8706C66.9448 13.0258 67.0005 13.0351 67.0376 13.0536L66.7871 12.7196ZM47.5 53.4369C49.6152 53.4369 51.684 53.1678 53.7064 52.6298C55.7288 52.0917 57.6399 51.331 59.4396 50.3476C61.2394 49.3642 62.9093 48.1582 64.4493 46.7295C65.9893 45.3008 67.3345 43.7052 68.4848 41.9425C68.2436 41.3859 68.0117 40.82 67.789 40.2448C67.5664 39.6696 67.4551 39.0759 67.4551 38.4636C67.4551 37.7957 67.4829 37.2576 67.5386 36.8494C67.5942 36.4412 67.6592 36.0794 67.7334 35.764C67.8076 35.4486 67.8447 35.1795 67.8447 34.9569C67.8447 34.7342 67.8169 34.4466 67.7612 34.0941C67.7055 33.7416 67.5478 33.3612 67.2881 32.953C67.0283 32.5448 66.6851 31.9696 66.2583 31.2275C66.2769 31.0976 66.3047 30.9213 66.3418 30.6987C66.3789 30.476 66.416 30.2441 66.4531 30.0029C66.4902 29.7617 66.4995 29.539 66.481 29.3349C66.4624 29.1308 66.416 28.9546 66.3418 28.8061C65.8594 28.7505 65.3584 28.6484 64.8389 28.5C64.3194 28.3516 63.8555 28.1289 63.4474 27.832L63.6143 27.6929C63.3731 27.7486 63.1319 27.8228 62.8907 27.9155C62.6495 28.0083 62.4176 28.1104 62.1949 28.2217C61.9723 28.333 61.7311 28.4072 61.4713 28.4443C61.2116 28.4814 60.9611 28.5186 60.7199 28.5557L60.2746 28.5L60.3581 28.3052C60.0983 28.3794 59.82 28.4722 59.5231 28.5835C59.2263 28.6948 58.9387 28.7505 58.6604 28.7505C58.4748 28.7505 58.2058 28.6855 57.8533 28.5557C57.5007 28.4258 57.1482 28.2681 56.7957 28.0825C56.4431 27.897 56.1277 27.6929 55.8494 27.4702C55.5711 27.2476 55.4319 27.0342 55.4319 26.8301L55.4876 26.7466C55.3948 26.6353 55.2742 26.5333 55.1258 26.4405C54.9774 26.3477 54.8382 26.2549 54.7083 26.1622C54.5784 26.0694 54.4578 25.9673 54.3465 25.856C54.2352 25.7447 54.1888 25.6148 54.2074 25.4664L54.5135 25.2159L53.8734 25.1324L53.6507 24.2975C53.6878 24.3902 53.7713 24.4273 53.9012 24.4088C54.0311 24.3902 54.1331 24.3531 54.2074 24.2975L53.2054 23.7687L53.9012 21.9875C53.6414 21.0226 53.5765 20.2805 53.7064 19.761C53.8363 19.2414 54.0867 18.8147 54.4578 18.4807C54.8289 18.1467 55.2371 17.8128 55.6824 17.4788C56.1277 17.1448 56.5823 16.6902 57.0461 16.1151L56.9627 15.7811L58.7995 13.5546L59.217 13.4989C59.7365 13.4989 60.321 13.4804 60.9704 13.4432C61.6198 13.4061 62.2784 13.3412 62.9464 13.2484C63.6143 13.1557 64.273 13.0629 64.9224 12.9701C65.5718 12.8773 66.1656 12.7567 66.7036 12.6083C66.1099 11.9032 65.4883 11.2353 64.8389 10.6045C64.1895 9.97361 63.4937 9.3706 62.7516 8.79541C62.5475 8.86963 62.297 8.97168 62.0001 9.10156C61.7033 9.23144 61.4064 9.39843 61.1095 9.60252C60.8127 9.80662 60.5807 10.0293 60.4137 10.2705C60.2467 10.5117 60.1447 10.7622 60.1076 11.0219L60.2746 11.5507C59.9406 12.0888 59.5695 12.4228 59.1613 12.5526C58.7531 12.6825 58.3357 12.7567 57.9089 12.7753C57.4822 12.7938 57.0369 12.7938 56.573 12.7753C56.1092 12.7567 55.6639 12.8402 55.2371 13.0258L54.7918 12.0795L55.2093 10.4653L54.7361 9.76951L59.551 8.26662C59.3469 7.7471 59.0129 7.35746 58.549 7.0977C58.0852 6.83794 57.5749 6.70807 57.0183 6.70807V6.42975L58.5769 6.17927C56.8513 5.32578 55.0608 4.67638 53.2054 4.23108C51.35 3.78577 49.4482 3.56312 47.5 3.56312C45.8858 3.56312 44.2901 3.72083 42.713 4.03626C41.1359 4.35168 39.6145 4.80626 38.1487 5.39999C36.6829 5.99373 35.2635 6.7359 33.8905 7.6265C32.5175 8.5171 31.2651 9.51903 30.1332 10.6323C30.6157 10.6323 30.9867 10.7529 31.2465 10.9941C31.5063 11.2353 31.7475 11.5043 31.9701 11.8012C32.1928 12.0981 32.4247 12.3671 32.6659 12.6083C32.9071 12.8495 33.2318 12.9794 33.64 12.9979L34.0853 12.664L34.0296 12.0517L34.9481 10.7436L34.2245 8.68409C34.3172 8.62843 34.4564 8.53566 34.6419 8.40578C34.8275 8.2759 34.9852 8.21096 35.1151 8.21096C35.6717 8.21096 36.0984 8.23879 36.3953 8.29445C36.6922 8.35011 36.9519 8.45216 37.1746 8.6006C37.3972 8.74903 37.592 8.9624 37.759 9.24072C37.926 9.51903 38.1858 9.87156 38.5383 10.2983L39.5402 9.51903C39.7258 9.59325 40.0226 9.71385 40.4308 9.88084C40.839 10.0478 41.2565 10.2519 41.6833 10.4931C42.11 10.7343 42.4718 10.9848 42.7687 11.2446C43.0655 11.5043 43.2233 11.7455 43.2418 11.9682C43.2418 12.2465 43.1398 12.4692 42.9357 12.6361C42.7316 12.8031 42.4625 12.9423 42.1286 13.0536C41.7946 13.1649 41.4513 13.2484 41.0988 13.3041C40.7463 13.3598 40.3937 13.434 40.0412 13.5267C39.6887 13.6195 39.4196 13.7123 39.2341 13.8051C39.0485 13.8978 38.9372 14.0555 38.9001 14.2782L40.5143 14.807C40.1432 15.1224 39.7443 15.41 39.3176 15.6698C38.8908 15.9295 38.4455 16.1707 37.9817 16.3934L38.093 16.8665L35.5325 17.8684V18.6477L35.3377 18.7312L35.4769 17.7571L35.3655 17.7293C35.2357 17.7293 35.1614 17.7571 35.1429 17.8128C35.1243 17.8684 35.1151 17.9334 35.1151 18.0076C35.1151 18.0818 35.1336 18.156 35.1707 18.2302C35.2078 18.3045 35.2171 18.3601 35.1985 18.3972L34.8367 18.2024L34.8924 18.3137C34.8924 18.3694 34.9202 18.4529 34.9759 18.5642C35.0316 18.6755 35.1058 18.7776 35.1985 18.8704C35.2913 18.9631 35.3655 19.0559 35.4212 19.1487C35.4769 19.2414 35.514 19.2878 35.5325 19.2878C35.5325 19.3435 35.4954 19.3992 35.4212 19.4548C35.347 19.5105 35.2542 19.5476 35.1429 19.5661C35.0316 19.5847 34.9573 19.6125 34.9202 19.6496C34.8831 19.6867 34.8831 19.696 34.9202 19.6775C35.18 19.6775 35.2357 19.696 35.0872 19.7331C34.9388 19.7702 34.7069 19.863 34.3914 20.0114C34.076 20.1599 33.7884 20.3733 33.5287 20.6516C33.2689 20.9299 33.1205 21.3381 33.0834 21.8761C33.0834 22.1916 33.0926 22.4977 33.1112 22.7946C33.1298 23.0914 33.1205 23.3976 33.0834 23.713C32.8236 23.0079 32.434 22.4699 31.9145 22.0988C31.3949 21.7277 30.7641 21.5422 30.0219 21.5422L28.8252 21.6535L29.4096 22.0431C29.0942 22.006 28.7695 21.9689 28.4355 21.9318C28.1016 21.8947 27.7583 21.8854 27.4058 21.904C27.0532 21.9225 26.7378 21.9967 26.4595 22.1266C26.1812 22.2565 25.9029 22.4513 25.6246 22.7111L25.4576 23.9635C25.4576 24.5572 25.5875 25.0396 25.8472 25.4107C26.107 25.7818 26.5616 25.9766 27.211 25.9952C27.7676 25.9952 28.3149 25.9117 28.853 25.7447C29.3911 25.5777 29.9199 25.3829 30.4394 25.1602C30.2724 25.5684 30.0869 25.9581 29.8828 26.3292C29.6787 26.7002 29.5302 27.1084 29.4375 27.5537L29.7993 27.7207C30.2446 27.4239 30.6528 27.3775 31.0238 27.5816C31.3949 27.7857 31.7567 28.0825 32.1093 28.4722C32.4618 28.8618 32.8236 29.2607 33.1947 29.6689C33.5658 30.0771 33.9647 30.374 34.3914 30.5595L33.4452 31.0605L31.2187 29.8081C31.2372 29.8452 31.2558 29.9287 31.2743 30.0586C31.2929 30.1884 31.2836 30.2163 31.2465 30.142L30.2446 28.4443C29.6508 28.4258 29.02 28.333 28.352 28.166C27.6841 27.999 27.0069 27.7764 26.3204 27.4981C25.6338 27.2198 24.9937 26.9136 24.4 26.5796C23.8063 26.2457 23.2589 25.8931 22.7579 25.522L22.5631 28.5C22.5631 30.7636 22.8693 32.9716 23.4816 35.1239C24.0938 37.2761 24.9566 39.2986 26.0699 41.1911C27.1831 43.0836 28.5469 44.8092 30.1611 46.3677C31.7753 47.9263 33.5658 49.2529 35.5325 50.3476C35.4398 49.958 35.4305 49.5683 35.5047 49.1787C35.5789 48.789 35.6717 48.3994 35.783 48.0098C35.8943 47.6201 36.0149 47.2305 36.1448 46.8409C36.2747 46.4512 36.3396 46.0523 36.3396 45.6441C36.3396 45.0504 36.2469 44.4288 36.0613 43.7794C35.8758 43.13 35.6531 42.4713 35.3934 41.8034C35.1336 41.1354 34.846 40.4767 34.5306 39.8274C34.2152 39.178 33.9647 38.5657 33.7792 37.9905C33.5936 37.4153 33.4452 36.8772 33.3338 36.3763C33.2225 35.8753 33.2782 35.4393 33.5008 35.0682L33.0834 34.8734C33.1947 34.6136 33.3431 34.3631 33.5287 34.1219C33.7142 33.8807 33.909 33.6395 34.1131 33.3983C34.3172 33.1571 34.4749 32.8974 34.5863 32.619C34.6976 32.3407 34.7625 32.0624 34.7811 31.7841C34.7811 31.5986 34.744 31.4037 34.6698 31.1996C34.5955 30.9955 34.5306 30.8007 34.4749 30.6152L35.0594 30.7543C35.3748 30.0307 35.8016 29.539 36.3396 29.2793C36.8777 29.0195 37.5549 28.8804 38.3713 28.8618C38.4641 28.8618 38.6589 28.8989 38.9558 28.9731C39.2526 29.0473 39.5681 29.1494 39.902 29.2793C40.236 29.4092 40.5514 29.5112 40.8483 29.5854C41.1452 29.6596 41.3678 29.7339 41.5163 29.8081C41.5163 29.938 41.5905 30.0214 41.7389 30.0586C41.8873 30.0957 41.9708 30.1606 41.9894 30.2534L41.9337 30.476C41.9894 30.4946 42.1193 30.5595 42.3234 30.6708C42.5275 30.7822 42.7501 30.9213 42.9913 31.0883C43.2325 31.2553 43.4459 31.4037 43.6314 31.5336C43.817 31.6635 43.9469 31.7655 44.0211 31.8398C44.3551 31.8398 44.8096 31.9511 45.3848 32.1737C45.96 32.3964 46.5908 32.6747 47.2773 33.0087C47.9639 33.3427 48.6411 33.7416 49.309 34.2054C49.977 34.6693 50.6078 35.1331 51.2016 35.597C51.7953 36.0608 52.2499 36.5247 52.5653 36.9886C52.8807 37.4524 53.0663 37.8606 53.1219 38.2131L52.1757 39.2151C52.2499 40.1613 52.1849 40.8849 51.9808 41.3859C51.7767 41.8869 51.4613 42.3043 51.0346 42.6383C50.6078 42.9723 50.1161 43.2506 49.5595 43.4733C49.0029 43.6959 48.3999 44.0113 47.7505 44.4195C47.7505 44.7906 47.6577 45.1895 47.4722 45.6163C47.2866 46.043 47.0547 46.4512 46.7764 46.8409C46.4981 47.2305 46.1641 47.5552 45.7745 47.8149C45.3848 48.0747 44.9952 48.2046 44.6055 48.2046L43.4366 47.314C43.4737 47.3511 43.4737 47.416 43.4366 47.5088C43.3995 47.6016 43.3531 47.6201 43.2975 47.5645C43.483 47.917 43.5294 48.3252 43.4366 48.789C43.3439 49.2529 43.1861 49.726 42.9635 50.2084C42.7408 50.6909 42.4904 51.1454 42.212 51.5722C41.9337 51.9989 41.6833 52.3607 41.4606 52.6576C42.4625 52.9174 43.4645 53.1122 44.4664 53.2421C45.4683 53.3719 46.4795 53.4369 47.5 53.4369Z" fill="#80D52F"/>
<path d="M45.0362 60C44.238 60 43.4576 60.2366 42.7938 60.6801C42.1301 61.1236 41.6127 61.7539 41.3072 62.4915C41.0017 63.229 40.9218 64.0405 41.0776 64.8234C41.2333 65.6064 41.6177 66.3256 42.1822 66.89L48.1462 72.854C48.1927 72.9006 48.2479 72.9375 48.3086 72.9627C48.3693 72.9879 48.4345 73.0009 48.5002 73.0009C48.566 73.0009 48.6311 72.9879 48.6919 72.9627C48.7526 72.9375 48.8078 72.9006 48.8542 72.854L54.8182 66.889C55.5547 66.128 55.9625 65.1081 55.9538 64.0492C55.9452 62.9903 55.5207 61.9772 54.7719 61.2284C54.0231 60.4796 53.01 60.0551 51.951 60.0464C50.8921 60.0377 49.8722 60.4456 49.1112 61.182L48.5002 61.792L47.8902 61.182C47.5153 60.8071 47.0702 60.5098 46.5803 60.307C46.0905 60.1041 45.5664 59.9998 45.0362 60Z" fill="#CF451D"/>
</svg>
