<svg width="110" height="95" viewBox="0 0 110 95" fill="none" xmlns="http://www.w3.org/2000/svg">
<path d="M67.4371 74.8051L103.213 78.234C106.581 78.5605 107.443 76.668 107.443 75.0648L107.406 73.1203L63.4062 66.8711C63.4062 69.0902 65.1969 74.8051 67.4371 74.8051Z" fill="#C62828"/>
<path d="M68.741 73.1127L74.3709 73.61L104.517 76.5416C106.138 76.5416 107.443 75.2428 107.443 73.6397L105.844 24.4623C105.844 22.8592 104.532 21.5604 102.918 21.5604L68.741 18.3096C66.5008 18.3096 64.6807 20.1131 64.6807 22.3322V69.09C64.6807 71.3092 66.4934 73.1127 68.741 73.1127Z" fill="#F44336"/>
<path d="M58.2405 74.8052L22.4642 78.2341C19.0965 78.5606 18.2344 76.6681 18.2344 75.0649L18.2712 73.1204L62.2713 66.8638C62.2713 69.0903 60.4807 74.8052 58.2405 74.8052Z" fill="#C62828"/>
<path d="M56.9362 73.1131L51.3505 73.6104L21.1599 76.5494C19.5387 76.5494 18.2344 75.2506 18.2344 73.6475L19.8334 24.4701C19.8334 22.867 21.1451 21.5682 22.7589 21.5682L56.9362 18.3174C59.1764 18.3174 60.9965 20.1209 60.9965 22.34V69.0979C60.9965 71.3096 59.1837 73.1131 56.9362 73.1131Z" fill="#F44336"/>
<path d="M73.7072 62.1064H51.9835L51.3203 73.6326L58.0998 74.2709C58.0998 74.2709 59.5515 77.9225 62.838 77.9225C66.1246 77.9225 67.5763 74.2709 67.5763 74.2709L74.3557 73.6326L73.7072 62.1064Z" fill="#424242"/>
<path d="M74.2895 74.538L67.9743 73.9888M51.3867 74.538L57.7019 73.9888" stroke="#616161" stroke-width="2.5" stroke-miterlimit="10"/>
<path d="M103.847 24.3584L100.9 20.2764L62.839 63.8428L24.7782 20.2764L21.8306 24.3584L21.418 72.8604C21.418 72.8604 29.2438 73.8475 39.7004 72.7787C48.8084 71.851 53.0972 69.476 56.1406 70.092C59.7956 70.8342 60.4588 73.0979 60.5767 73.4838C60.9083 74.5525 61.5641 75.3838 62.839 75.3838C64.1138 75.3838 64.6812 74.9385 65.0717 73.6174C65.1897 73.2314 65.8823 70.8416 69.5373 70.0994C72.5807 69.4834 76.8695 71.8584 85.9775 72.7861C96.4341 73.8549 104.26 72.8678 104.26 72.8678L103.847 24.3584Z" fill="#94C6D6"/>
<path d="M99.9043 68.1847L100.022 48.5984H104.053L104.259 72.8605C104.259 72.8605 101.054 71.6062 99.9043 68.1847Z" fill="url(#paint0_linear_175_525)"/>
<path d="M100.089 56.77L99.9048 68.1923C99.9048 68.1923 91.0915 67.7321 77.0536 65.2829C67.8719 63.6798 62.8389 68.8157 62.8389 68.8157L62.7578 56.77H100.089Z" fill="url(#paint1_linear_175_525)"/>
<path d="M25.5889 56.77L25.7731 68.1923C25.7731 68.1923 34.5864 67.7321 48.6243 65.2829C57.806 63.6798 62.839 68.8157 62.839 68.8157L62.758 56.77H25.5889Z" fill="url(#paint2_linear_175_525)"/>
<path d="M25.773 68.185L25.6551 48.5986H21.6169L21.418 72.8607C21.418 72.8607 24.6161 71.6064 25.773 68.185Z" fill="url(#paint3_linear_175_525)"/>
<path d="M100.9 20.2766C100.9 20.2766 81.3424 16.5731 72.7576 16.0907C64.6812 15.6379 63.0231 19.7793 62.861 20.2766H62.8316C62.6621 19.7793 61.004 15.6454 52.9277 16.0907C44.3428 16.5731 24.7856 20.2766 24.7856 20.2766L23.916 68.0735C23.916 68.0735 47.202 63.1602 52.8392 63.7985C58.4765 64.4368 62.8389 68.8157 62.8389 68.8157C62.8389 68.8157 67.2087 64.4368 72.846 63.7985C78.4832 63.1602 101.769 68.0735 101.769 68.0735L100.9 20.2766Z" fill="url(#paint4_linear_175_525)"/>
<path opacity="0.26" d="M55.1892 16.0981L51.21 63.7466C51.8363 63.7317 52.389 63.7466 52.8311 63.7985C58.461 64.4294 62.8382 68.8157 62.8382 68.8157L62.7129 20.2767C62.7129 20.2767 61.755 16.4767 55.1892 16.0981Z" fill="#94C6D6"/>
<path opacity="0.5" d="M34.328 22.3993C32.3384 22.7481 30.7098 23.045 29.7813 23.2083C29.7813 23.6684 29.7813 24.1731 29.774 24.7149C30.5919 24.5665 32.2573 24.2622 34.328 23.8985V22.3993ZM52.2641 20.0095V21.4864C56.1917 21.479 58.3656 22.4735 59.0804 22.8743C59.0804 22.2583 59.0877 21.7091 59.0877 21.2266C57.8719 20.6774 55.6464 20.002 52.2641 20.0095ZM49.0659 20.195C45.8752 20.5216 41.4317 21.2044 37.5261 21.8575V23.3641C41.4022 22.7184 45.8531 22.0282 49.0659 21.6868V20.195ZM41.218 26.6001C36.4576 27.3423 31.6825 28.2032 29.7666 28.552V30.0587C31.432 29.7544 36.3176 28.8637 41.218 28.0993V26.6001ZM50.0829 25.4423C48.528 25.5684 46.5457 25.8208 44.4161 26.1177V27.6169C46.59 27.3052 48.6238 27.0528 50.2008 26.9192C55.4917 26.4813 58.2845 27.7876 59.0656 28.2329V26.5778C57.6213 25.9321 54.7253 25.0563 50.0829 25.4423ZM35.1165 32.9458C32.7879 33.3466 30.8425 33.6954 29.7666 33.8958V35.4024C30.7319 35.2243 32.7068 34.868 35.1165 34.4524V32.9458ZM59.0656 31.9438C57.6287 31.2907 54.7253 30.4001 50.0386 30.7934C47.0395 31.0384 42.4486 31.7286 38.3146 32.4114V33.918C42.4854 33.2278 47.1426 32.5302 50.1639 32.2778C55.5433 31.8325 58.3435 33.1907 59.0656 33.6137V31.9438ZM59.073 37.3098C57.6508 36.6567 54.7327 35.7438 50.0092 36.1372C49.5302 36.1743 49.0144 36.2262 48.469 36.2856V37.7774C49.0659 37.7106 49.6186 37.6587 50.1344 37.6141C55.6169 37.1614 58.4172 38.579 59.0804 38.9798C59.073 38.4231 59.073 37.8665 59.073 37.3098ZM45.2635 36.6864C39.501 37.4805 32.3236 38.7645 29.774 39.2321V40.7387C32.0215 40.3231 39.3684 38.9946 45.2635 38.1782V36.6864ZM36.4945 43.3958C33.5985 43.8856 31.093 44.3384 29.774 44.5759V46.0825C30.9677 45.8598 33.51 45.3997 36.4945 44.895V43.3958ZM59.0804 42.6833C57.6729 42.0302 54.74 41.095 49.9723 41.4884C47.3195 41.711 43.4287 42.2677 39.7 42.8688V44.368C43.4655 43.7595 47.4227 43.188 50.0902 42.9653C55.7127 42.4977 58.5203 44.0118 59.0804 44.3532V42.6833ZM59.0951 53.4227C57.7539 52.777 54.8506 51.8048 50.0607 52.1684V53.6602C56.1696 53.163 58.9404 55.0036 59.0951 55.1149V53.4227ZM35.1165 54.3134C32.8468 54.7067 30.9162 55.0481 29.7887 55.2559V56.7626C30.8277 56.5696 32.7731 56.2208 35.1165 55.8126V54.3134ZM38.3146 53.779V55.2856C41.1738 54.818 44.2466 54.343 46.8626 54.0091V52.5098C44.2614 52.8364 41.1885 53.304 38.3146 53.779ZM43.436 58.3212C38.1599 59.093 32.2278 60.1544 29.7961 60.5997V62.1063C31.9994 61.6981 38.042 60.6145 43.436 59.8204V58.3212ZM59.1025 58.7962C57.7687 58.143 54.799 57.1262 49.847 57.5345C48.9112 57.6087 47.8206 57.7348 46.6342 57.8833V59.3751C47.8648 59.2192 48.9996 59.093 49.9649 59.0114C56.2728 58.4845 59.0435 60.4587 59.073 60.4735L59.1098 60.429C59.1098 59.9169 59.1098 59.3751 59.1025 58.7962ZM42.3381 47.797C37.3124 48.554 31.9847 49.5114 29.7813 49.9196V51.4262C31.7562 51.0626 37.1872 50.0829 42.3381 49.2962V47.797ZM59.0877 48.0493C57.7024 47.3962 54.7621 46.4313 49.9281 46.8321C48.6901 46.936 47.1795 47.1141 45.5436 47.3368V48.836C47.2311 48.6059 48.7859 48.4204 50.0534 48.3165C55.8601 47.8341 58.6677 49.4595 59.0951 49.7341C59.0877 49.1848 59.0877 48.6208 59.0877 48.0493ZM80.8262 22.0505C86.9277 22.8669 94.9009 24.3216 97.0674 24.7149C97.0674 24.1657 97.0674 23.6684 97.06 23.2083C94.5251 22.7407 86.7656 21.3454 80.8188 20.5512V22.0505H80.8262ZM77.6207 20.1802C77.3038 20.1505 77.0017 20.1208 76.7143 20.0985C72.094 19.7126 69.2053 20.5809 67.7536 21.2266C67.7536 21.7091 67.761 22.2657 67.761 22.8743C68.5863 22.4141 71.3792 21.145 76.5964 21.5755C76.9206 21.6052 77.267 21.6348 77.6207 21.672V20.1802ZM91.1059 29.0048C93.0977 29.3463 95.0873 29.7001 97.0748 30.0661V28.5595C95.9178 28.3442 93.7219 27.9509 91.1059 27.5055V29.0048ZM87.9078 26.9638C83.9212 26.318 79.6177 25.6798 76.7585 25.4423C72.1161 25.0563 69.2201 25.9321 67.7684 26.5778V28.2329C68.5495 27.7876 71.3423 26.4813 76.6333 26.9192C79.5145 27.1567 83.8843 27.8098 87.9004 28.463V26.9638H87.9078ZM87.2888 32.2036V33.7028C91.5702 34.393 95.5568 35.1204 97.0748 35.4024V33.8958C95.3578 33.5841 91.4449 32.879 87.2888 32.2036ZM80.8188 36.5899C79.3377 36.397 77.967 36.2337 76.8322 36.1446C72.1087 35.7512 69.1906 36.6641 67.7684 37.3173V38.9872C68.4316 38.5938 71.2392 37.1688 76.7143 37.6216C77.8786 37.718 79.2935 37.8813 80.8188 38.0891V36.5899ZM84.0243 37.0427V38.5419C89.3668 39.3434 95.122 40.3899 97.0674 40.7462V39.2395C94.8715 38.8313 89.2342 37.822 84.0243 37.0427ZM84.6728 42.4829C81.7621 42.0376 78.9397 41.6591 76.8764 41.4884C72.1013 41.095 69.1685 42.0302 67.7684 42.6833V44.3606C68.3284 44.0118 71.136 42.5052 76.7585 42.9727C78.8439 43.1434 81.7252 43.5368 84.6802 43.9895V42.4829H84.6728ZM87.8709 42.9876V44.4942C91.8797 45.1473 95.5494 45.8153 97.06 46.0899V44.5833C95.3799 44.2716 91.7691 43.6184 87.8709 42.9876ZM93.0808 49.2071V50.7137C94.8199 51.018 96.2421 51.2778 97.0527 51.4262V49.9196C96.1684 49.7563 94.7683 49.504 93.0808 49.2071ZM81.4747 52.7028C79.7872 52.4727 78.225 52.2872 76.9575 52.1833C72.0645 51.7751 69.1095 52.7696 67.7536 53.4227V55.1149C67.9084 55.0036 70.6939 53.1481 76.847 53.6602C78.1439 53.7641 79.7503 53.9571 81.4894 54.1946V52.7028H81.4747ZM84.6728 53.163V54.6622C89.7426 55.4341 95.063 56.3989 97.0527 56.7626V55.2559C94.842 54.8552 89.6247 53.92 84.6728 53.163ZM87.2888 58.9149C83.5527 58.3137 79.6472 57.7497 76.9943 57.527C72.035 57.1188 69.0727 58.143 67.7389 58.7887V60.4216L67.7757 60.4661C67.7979 60.4512 70.5686 58.477 76.8838 59.004C79.5587 59.2266 83.5306 59.8055 87.3035 60.4141V58.9149H87.2888ZM90.4943 59.4493V60.9559C93.3608 61.4384 95.8073 61.8837 97.0453 62.1138V60.6071C95.6968 60.3548 93.2798 59.9169 90.4943 59.4493ZM76.788 46.8247C72.0276 46.4462 69.1243 47.4036 67.7536 48.0493V49.7341C68.181 49.4595 70.9813 47.8341 76.788 48.3165V46.8247ZM79.9935 47.1661V48.6579C83.0295 49.0438 86.6772 49.6227 89.8827 50.1571V48.6505C86.655 48.1161 83.0074 47.5446 79.9935 47.1661ZM74.4226 30.7044C71.1213 30.7266 68.9474 31.4095 67.7757 31.9438V33.6063C68.3947 33.2501 70.5096 32.2184 74.4226 32.1813V30.7044ZM77.6207 30.8677V32.3595C79.4556 32.545 81.7326 32.8567 84.0833 33.2055V31.7063C81.7252 31.3501 79.4556 31.0458 77.6207 30.8677Z" fill="#757575"/>
<path d="M68.1152 73.0684C67.2899 72.9942 66.5309 73.5063 66.2656 74.3004C65.8677 75.5102 64.9392 77.0911 62.8391 77.0911C60.7168 77.0911 59.7809 75.5028 59.3756 74.293C59.2495 73.9139 59.0011 73.5881 58.6699 73.3676C58.3388 73.147 57.9439 73.0443 57.5481 73.0758L57.2607 73.0981L57.2681 73.3356C57.2681 74.8217 57.8543 76.247 58.8976 77.2979C59.941 78.3487 61.3561 78.9391 62.8317 78.9391C64.3072 78.9391 65.7224 78.3487 66.7657 77.2979C67.8091 76.247 68.3953 74.8217 68.3953 73.3356C68.3953 73.2614 68.3879 73.0907 68.3879 73.0907L68.1152 73.0684Z" fill="#616161"/>
<path d="M86.4189 17.8125V30.3887L90.1366 26.7925L93.7071 30.3887V18.8914C91.317 18.301 88.8767 17.9397 86.4189 17.8125Z" fill="#00A1E0"/>
<path d="M14.4811 9.65362C13.4982 10.6232 12.1772 11.1662 10.8013 11.1662C9.42553 11.1662 8.1045 10.6232 7.12154 9.65362C7.07457 9.60501 7.0184 9.56637 6.95635 9.53998C6.8943 9.51359 6.82764 9.5 6.76028 9.5C6.69293 9.5 6.62626 9.51359 6.56421 9.53998C6.50217 9.56637 6.446 9.60501 6.39902 9.65362C6.35025 9.70239 6.31155 9.76039 6.28513 9.82429C6.25872 9.88819 6.24512 9.95672 6.24512 10.0259C6.24512 10.0952 6.25872 10.1637 6.28513 10.2276C6.31155 10.2915 6.35025 10.3495 6.39902 10.3983C7.36867 11.3811 7.91289 12.7104 7.91289 14.096C7.91289 15.4816 7.36867 16.8109 6.39902 17.7938C6.35076 17.8411 6.31239 17.8976 6.28619 17.9601C6.25999 18.0226 6.2465 18.0898 6.2465 18.1576C6.2465 18.2255 6.25999 18.2926 6.28619 18.3551C6.31239 18.4176 6.35076 18.4742 6.39902 18.5215C6.49519 18.6107 6.62115 18.6602 6.75188 18.6602C6.88262 18.6602 7.00857 18.6107 7.10474 18.5215C8.08275 17.549 9.40178 17.0036 10.7761 17.0036C12.1505 17.0036 13.4695 17.549 14.4475 18.5215C14.496 18.5706 14.5535 18.6096 14.617 18.6362C14.6804 18.6628 14.7485 18.6765 14.8172 18.6765C14.8859 18.6765 14.954 18.6628 15.0174 18.6362C15.0809 18.6096 15.1384 18.5706 15.1869 18.5215C15.2356 18.4727 15.2743 18.4147 15.3008 18.3508C15.3272 18.2869 15.3408 18.2184 15.3408 18.1492C15.3408 18.0799 15.3272 18.0114 15.3008 17.9475C15.2743 17.8836 15.2356 17.8256 15.1869 17.7768C14.2172 16.794 13.673 15.4647 13.673 14.0791C13.673 12.6935 14.2172 11.3642 15.1869 10.3813C15.2351 10.334 15.2735 10.2774 15.2997 10.215C15.3259 10.1525 15.3394 10.0853 15.3394 10.0175C15.3394 9.94964 15.3259 9.88249 15.2997 9.82C15.2735 9.7575 15.2351 9.70093 15.1869 9.65362C15.0907 9.56442 14.9647 9.51491 14.834 9.51491C14.7033 9.51491 14.5773 9.56442 14.4811 9.65362Z" fill="#F44336"/>
<path d="M14.9013 25.5446C14.7446 25.7084 14.5566 25.8387 14.3488 25.9277C14.1409 26.0166 13.9174 26.0625 13.6915 26.0625C13.4656 26.0625 13.2421 26.0166 13.0342 25.9277C12.8264 25.8387 12.6385 25.7084 12.4817 25.5446C12.4475 25.5125 12.4025 25.4946 12.3557 25.4946C12.3089 25.4946 12.2639 25.5125 12.2297 25.5446C12.1989 25.5762 12.1816 25.6188 12.1816 25.6631C12.1816 25.7074 12.1989 25.7499 12.2297 25.7815C12.3949 25.9396 12.5265 26.1299 12.6164 26.3409C12.7063 26.5518 12.7527 26.7789 12.7527 27.0085C12.7527 27.238 12.7063 27.4652 12.6164 27.6761C12.5265 27.887 12.3949 28.0773 12.2297 28.2354C12.1989 28.2671 12.1816 28.3096 12.1816 28.3539C12.1816 28.3982 12.1989 28.4407 12.2297 28.4723C12.2628 28.4999 12.3044 28.5149 12.3473 28.5149C12.3902 28.5149 12.4318 28.4999 12.4649 28.4723C12.6219 28.3059 12.8108 28.1734 13.0203 28.0829C13.2297 27.9923 13.4552 27.9456 13.6831 27.9456C13.911 27.9456 14.1365 27.9923 14.346 28.0829C14.5554 28.1734 14.7443 28.3059 14.9013 28.4723C14.9355 28.5045 14.9806 28.5223 15.0273 28.5223C15.0741 28.5223 15.1191 28.5045 15.1533 28.4723C15.1852 28.4379 15.203 28.3925 15.203 28.3454C15.203 28.2983 15.1852 28.253 15.1533 28.2185C14.9907 28.0606 14.8614 27.8714 14.773 27.662C14.6847 27.4526 14.6391 27.2275 14.6391 27C14.6391 26.7725 14.6847 26.5474 14.773 26.338C14.8614 26.1287 14.9907 25.9394 15.1533 25.7815C15.182 25.7455 15.1976 25.7007 15.1976 25.6546C15.1976 25.6085 15.182 25.5637 15.1533 25.5277C15.117 25.4978 15.0708 25.4829 15.024 25.486C14.9772 25.4892 14.9333 25.5101 14.9013 25.5446Z" fill="#F44336"/>
<path d="M24.3439 9.83953C24.1869 10.0059 23.998 10.1385 23.7886 10.229C23.5791 10.3196 23.3536 10.3663 23.1257 10.3663C22.8978 10.3663 22.6723 10.3196 22.4628 10.229C22.2534 10.1385 22.0645 10.0059 21.9075 9.83953C21.8733 9.80741 21.8282 9.78955 21.7815 9.78955C21.7347 9.78955 21.6897 9.80741 21.6555 9.83953C21.6247 9.87116 21.6074 9.9137 21.6074 9.95799C21.6074 10.0023 21.6247 10.0448 21.6555 10.0765C21.8207 10.2346 21.9523 10.4249 22.0422 10.6358C22.1321 10.8467 22.1784 11.0739 22.1784 11.3034C22.1784 11.5329 22.1321 11.7601 22.0422 11.971C21.9523 12.1819 21.8207 12.3722 21.6555 12.5303C21.6354 12.5658 21.6275 12.6069 21.6329 12.6473C21.6384 12.6877 21.6568 12.7252 21.6854 12.754C21.714 12.7828 21.7513 12.8014 21.7914 12.8069C21.8315 12.8123 21.8723 12.8044 21.9075 12.7842C22.0645 12.6178 22.2534 12.4853 22.4628 12.3947C22.6723 12.3042 22.8978 12.2575 23.1257 12.2575C23.3536 12.2575 23.5791 12.3042 23.7886 12.3947C23.998 12.4853 24.1869 12.6178 24.3439 12.7842C24.3753 12.8152 24.4175 12.8326 24.4615 12.8326C24.5055 12.8326 24.5477 12.8152 24.5791 12.7842C24.611 12.7497 24.6288 12.7044 24.6288 12.6573C24.6288 12.6102 24.611 12.5648 24.5791 12.5303C24.4139 12.3722 24.2823 12.1819 24.1924 11.971C24.1025 11.7601 24.0561 11.5329 24.0561 11.3034C24.0561 11.0739 24.1025 10.8467 24.1924 10.6358C24.2823 10.4249 24.4139 10.2346 24.5791 10.0765C24.6099 10.0448 24.6272 10.0023 24.6272 9.95799C24.6272 9.9137 24.6099 9.87116 24.5791 9.83953C24.5477 9.80852 24.5055 9.79115 24.4615 9.79115C24.4175 9.79115 24.3753 9.80852 24.3439 9.83953Z" fill="#F44336"/>
<defs>
<linearGradient id="paint0_linear_175_525" x1="102.073" y1="65.4616" x2="102.258" y2="52.6196" gradientUnits="userSpaceOnUse">
<stop offset="0.267" stop-color="#82AEC0"/>
<stop offset="1" stop-color="#82AEC0" stop-opacity="0"/>
</linearGradient>
<linearGradient id="paint1_linear_175_525" x1="67.1991" y1="62.7899" x2="98.7464" y2="62.7899" gradientUnits="userSpaceOnUse">
<stop stop-color="#2F7889"/>
<stop offset="1" stop-color="#82AEC0"/>
</linearGradient>
<linearGradient id="paint2_linear_175_525" x1="58.4022" y1="62.7899" x2="26.9249" y2="62.7899" gradientUnits="userSpaceOnUse">
<stop stop-color="#2F7889"/>
<stop offset="1" stop-color="#82AEC0"/>
</linearGradient>
<linearGradient id="paint3_linear_175_525" x1="23.6014" y1="65.4619" x2="23.416" y2="52.6198" gradientUnits="userSpaceOnUse">
<stop offset="0.267" stop-color="#82AEC0"/>
<stop offset="1" stop-color="#82AEC0" stop-opacity="0"/>
</linearGradient>
<linearGradient id="paint4_linear_175_525" x1="62.8426" y1="16.0562" x2="62.8426" y2="68.8157" gradientUnits="userSpaceOnUse">
<stop stop-color="#E6E6E6"/>
<stop offset="1" stop-color="white"/>
</linearGradient>
</defs>
</svg>
