<svg width="107" height="112" viewBox="0 0 107 112" fill="none" xmlns="http://www.w3.org/2000/svg">
<path d="M16.2363 16.9915L20.2599 3L32.5058 11.7447L50 9.47108L42.4775 23.1128L48.0756 37.2792C45.8364 36.9994 38.0456 35.1805 34.4302 34.306L16.2363 49.8716C13.0173 51.4106 15.9447 38.7367 17.8107 32.2073C17.8107 31.3678 7.43085 28.5928 2.24091 27.3103C0.281566 26.051 10.7547 19.9064 16.2363 16.9915Z" stroke="white" stroke-width="3"/>
<path d="M76.1943 43.9308L78.7929 35L86.7017 40.5817L98 39.1305L93.1417 47.838L96.7572 56.8803C95.311 56.7017 90.2795 55.5407 87.9445 54.9826L76.1943 64.918C74.1154 65.9004 76.0059 57.8106 77.2111 53.643C77.2111 53.1071 70.5074 51.3358 67.1556 50.5172C65.8902 49.7134 72.6541 45.7913 76.1943 43.9308Z" stroke="white" stroke-width="2.5"/>
<path d="M45.1943 73.9308L47.7929 65L55.7017 70.5817L67 69.1305L62.1417 77.838L65.7572 86.8803C64.311 86.7017 59.2795 85.5407 56.9445 84.9826L45.1943 94.918C43.1154 95.9004 45.0059 87.8106 46.2111 83.643C46.2111 83.1071 39.5074 81.3358 36.1556 80.5172C34.8902 79.7134 41.6541 75.7913 45.1943 73.9308Z" stroke="white" stroke-width="2.5"/>
<path d="M88.525 95.2515L90.3691 89L95.9818 92.9072L104 91.8913L100.552 97.9866L103.118 104.316C102.092 104.191 98.5209 103.379 96.8638 102.988L88.525 109.943C87.0496 110.63 88.3913 104.967 89.2466 102.05C89.2466 101.675 84.4891 100.435 82.1104 99.862C81.2124 99.2994 86.0126 96.5539 88.525 95.2515Z" stroke="white" stroke-width="2.5"/>
</svg>
