<svg width="969" height="569" viewBox="0 0 969 569" fill="none" xmlns="http://www.w3.org/2000/svg">
<path d="M900.962 512.968H857.825V513.312H900.962V512.968Z" fill="#EBEBEB"/>
<path d="M746.39 516.708H735.072V517.052H746.39V516.708Z" fill="#EBEBEB"/>
<path d="M856.523 500.204H831.529V500.548H856.523V500.204Z" fill="#EBEBEB"/>
<path d="M439.577 502.515H383.325V502.858H439.577V502.515Z" fill="#EBEBEB"/>
<path d="M459.426 502.515H451.182V502.858H459.426V502.515Z" fill="#EBEBEB"/>
<path d="M608.242 508.319H486.23V508.663H608.242V508.319Z" fill="#EBEBEB"/>
<path d="M623.675 429.496H372.189C370.219 429.492 368.331 428.663 366.939 427.191C365.547 425.719 364.766 423.723 364.766 421.643V48.3237C364.783 46.2552 365.572 44.2773 366.962 42.8197C368.352 41.3622 370.231 40.5426 372.189 40.5391H623.675C625.647 40.5391 627.539 41.3665 628.934 42.8393C630.328 44.3121 631.112 46.3096 631.112 48.3925V421.643C631.112 423.725 630.328 425.723 628.934 427.196C627.539 428.669 625.647 429.496 623.675 429.496ZM372.189 40.8141C370.306 40.8178 368.5 41.6106 367.169 43.0185C365.839 44.4264 365.091 46.3344 365.091 48.3237V421.643C365.091 423.632 365.839 425.54 367.169 426.948C368.5 428.356 370.306 429.149 372.189 429.152H623.675C625.56 429.149 627.367 428.356 628.7 426.949C630.033 425.541 630.783 423.633 630.786 421.643V48.3237C630.783 46.3332 630.033 44.4252 628.7 43.0177C627.367 41.6101 625.56 40.8178 623.675 40.8141H372.189Z" fill="#EBEBEB"/>
<path d="M905.403 429.496H653.905C651.933 429.492 650.044 428.664 648.65 427.192C647.256 425.72 646.471 423.724 646.468 421.643V48.3237C646.488 46.2539 647.281 44.2761 648.673 42.8189C650.065 41.3617 651.945 40.5426 653.905 40.5391H905.403C907.36 40.5462 909.235 41.3674 910.622 42.8246C912.009 44.2818 912.797 46.2575 912.814 48.3237V421.643C912.814 423.721 912.034 425.714 910.645 427.186C909.256 428.658 907.371 429.489 905.403 429.496ZM653.905 40.8141C652.02 40.8178 650.213 41.6101 648.88 43.0177C647.547 44.4252 646.797 46.3332 646.793 48.3237V421.643C646.797 423.633 647.547 425.541 648.88 426.949C650.213 428.356 652.02 429.149 653.905 429.152H905.403C907.288 429.149 909.095 428.356 910.428 426.949C911.761 425.541 912.511 423.633 912.515 421.643V48.3237C912.511 46.3332 911.761 44.4252 910.428 43.0177C909.095 41.6101 907.288 40.8178 905.403 40.8141H653.905Z" fill="#EBEBEB"/>
<path d="M966.214 490.838H315V491.182H966.214V490.838Z" fill="#EBEBEB"/>
<path d="M874.158 60.4956H869.717V140.157H874.158V60.4956Z" fill="#E0E0E0"/>
<path d="M871.931 60.4956H800.975V140.157H871.931V60.4956Z" fill="#F0F0F0"/>
<path d="M866.422 66.7673H807.344V133.872H866.422V66.7673Z" fill="white"/>
<path d="M852.147 108.056C852.136 109.074 852.206 110.091 852.355 111.096C852.499 111.88 852.668 112.678 852.85 113.462C853.049 114.06 853.167 114.685 853.202 115.318C853.208 115.89 853.088 116.455 852.851 116.968C852.613 117.482 852.265 117.93 851.834 118.275C850.916 119.076 849.756 119.5 848.565 119.472C847.741 119.549 846.91 119.432 846.133 119.13C845.357 118.828 844.653 118.348 844.072 117.725C843.095 116.43 842.554 114.828 842.535 113.173C840.796 115.255 838.638 116.9 836.218 117.987C833.76 119.009 831.136 119.514 828.495 119.472C825.526 119.516 822.643 118.421 820.381 116.391C819.265 115.432 818.372 114.215 817.772 112.835C817.171 111.454 816.878 109.947 816.916 108.428C816.862 106.53 817.233 104.645 817.997 102.926C818.687 101.458 819.729 100.206 821.019 99.2952C822.409 98.3169 823.939 97.583 825.551 97.1221C827.423 96.5653 829.335 96.1788 831.269 95.9668L837.521 95.2241C838.681 95.1301 839.807 94.7635 840.816 94.1513C841.223 93.8042 841.54 93.3528 841.736 92.8402C841.932 92.3275 842.001 91.7704 841.936 91.2217C841.964 90.5412 841.807 89.8664 841.484 89.2767C841.161 88.6871 840.685 88.2071 840.112 87.8933C838.691 87.0978 837.096 86.7134 835.489 86.7793C833.913 86.6981 832.343 87.0288 830.917 87.742C829.687 88.4719 828.553 89.369 827.544 90.4103C826.958 91.0647 826.302 91.6462 825.59 92.1432C824.998 92.5234 824.317 92.7189 823.624 92.7072C822.47 92.7477 821.348 92.3081 820.498 91.4831C820.106 91.1162 819.792 90.665 819.579 90.1597C819.366 89.6544 819.257 89.1068 819.261 88.5535C819.299 87.3403 819.68 86.1669 820.355 85.1838C821.197 83.8979 822.284 82.8112 823.546 81.993C825.158 80.9357 826.915 80.1471 828.755 79.6548C830.992 79.0402 833.296 78.7442 835.606 78.7746C840.755 78.7746 844.814 79.6915 847.784 81.5253C849.196 82.3393 850.363 83.5565 851.15 85.0377C851.938 86.519 852.315 88.2045 852.238 89.9014L852.147 108.056ZM841.897 100.272C841.377 100.744 840.769 101.095 840.112 101.303C839.257 101.581 838.388 101.806 837.508 101.977L833.783 102.569C832.017 102.74 830.312 103.333 828.794 104.302C828.261 104.711 827.835 105.256 827.555 105.886C827.275 106.516 827.15 107.211 827.192 107.905C827.194 108.521 827.335 109.128 827.602 109.675C827.869 110.223 828.255 110.696 828.729 111.055C829.93 111.971 831.391 112.427 832.871 112.348C835.242 112.455 837.565 111.621 839.383 110.009C840.157 109.344 840.782 108.505 841.212 107.554C841.643 106.602 841.867 105.562 841.871 104.508L841.897 100.272Z" fill="#EBEBEB"/>
<path d="M896.469 281.285H862.593V319.369H896.469V281.285Z" fill="#E6E6E6"/>
<path d="M862.592 281.285H853.918V319.369H862.592V281.285Z" fill="#F5F5F5"/>
<path d="M905.351 275.412H879.901V319.369H905.351V275.412Z" fill="#E6E6E6"/>
<path d="M879.914 275.412H872.556V319.369H879.914V275.412Z" fill="#F0F0F0"/>
<path d="M912.123 281.285H887.403V319.369H912.123V281.285Z" fill="#F0F0F0"/>
<path d="M887.39 281.285H882.493V319.369H887.39V281.285Z" fill="#F5F5F5"/>
<path d="M808.633 308.683H802.342V322.904H808.633V308.683Z" fill="#E0E0E0"/>
<path d="M804.426 311.722C800.07 311.735 795.755 310.834 791.731 309.073C787.706 307.312 784.053 304.725 780.982 301.462L781.907 300.499C787.878 306.804 795.976 310.347 804.42 310.347C812.863 310.347 820.961 306.804 826.932 300.499C832.903 294.194 836.257 285.643 836.257 276.726C836.257 267.809 832.903 259.258 826.932 252.953L827.844 251.99C832.473 256.887 835.623 263.122 836.898 269.909C838.173 276.696 837.514 283.729 835.006 290.121C832.497 296.513 828.251 301.976 822.804 305.821C817.356 309.666 810.952 311.719 804.4 311.722H804.426Z" fill="#E0E0E0"/>
<path d="M912.515 319.37H779.654V490.398H912.515V319.37Z" fill="#EBEBEB"/>
<path d="M900.962 338.432H790.269V490.824H900.962V338.432Z" fill="#F5F5F5"/>
<path d="M805.95 302.191C818.3 302.191 828.312 291.618 828.312 278.576C828.312 265.533 818.3 254.96 805.95 254.96C793.599 254.96 783.587 265.533 783.587 278.576C783.587 291.618 793.599 302.191 805.95 302.191Z" fill="#EBEBEB"/>
<path d="M789.825 295.686C785.657 291.131 783.349 285.029 783.4 278.695C783.451 272.361 785.857 266.302 790.098 261.823C794.34 257.344 800.078 254.804 806.076 254.75C812.074 254.696 817.852 257.133 822.165 261.535L821.448 262.291C819.416 260.148 817.003 258.449 814.348 257.291C811.694 256.132 808.849 255.537 805.977 255.54C803.104 255.543 800.261 256.143 797.608 257.306C794.955 258.469 792.545 260.172 790.516 262.319C788.486 264.466 786.877 267.013 785.78 269.817C784.683 272.62 784.12 275.624 784.122 278.657C784.125 281.69 784.693 284.694 785.794 287.495C786.896 290.296 788.509 292.841 790.542 294.984L789.825 295.686Z" fill="white"/>
<path d="M789.826 295.685L790.542 294.943C792.573 297.086 794.983 298.785 797.635 299.945C800.287 301.104 803.13 301.701 806 301.7C808.871 301.699 811.713 301.102 814.365 299.941C817.017 298.78 819.426 297.08 821.456 294.936C823.485 292.792 825.095 290.247 826.192 287.446C827.29 284.645 827.855 281.643 827.855 278.612C827.854 275.581 827.288 272.579 826.189 269.779C825.09 266.978 823.479 264.434 821.449 262.291L822.165 261.535C824.348 263.763 826.09 266.428 827.287 269.374C828.485 272.32 829.115 275.489 829.141 278.695C829.166 281.901 828.587 285.081 827.437 288.048C826.288 291.015 824.59 293.711 822.443 295.978C820.296 298.245 817.743 300.038 814.933 301.253C812.123 302.467 809.112 303.078 806.076 303.051C803.04 303.024 800.04 302.359 797.25 301.094C794.46 299.829 791.936 297.991 789.826 295.685Z" fill="white"/>
<path d="M814.259 287.337L813.543 286.594C818.753 281.093 823.142 270.846 821.358 262.03L822.334 261.81C824.249 270.998 819.69 281.602 814.259 287.337Z" fill="white"/>
<path d="M790.555 295.328L790.776 294.283C799.112 296.208 808.789 291.614 814.024 286.03L814.741 286.773C809.31 292.577 799.255 297.336 790.555 295.328Z" fill="white"/>
<path d="M798.448 270.64L797.731 269.897C803.163 264.148 813.217 259.389 821.917 261.398L821.696 262.443C813.361 260.517 803.684 265.111 798.448 270.64Z" fill="white"/>
<path d="M790.177 294.984C788.276 285.797 792.782 275.192 798.213 269.443L798.93 270.2C793.72 275.701 789.331 285.948 791.115 294.764L790.177 294.984Z" fill="white"/>
<path d="M821.46 261.538L789.834 294.935L790.543 295.683L822.169 262.286L821.46 261.538Z" fill="white"/>
<path d="M801.389 255.216L800.68 255.965L827.452 284.237L828.161 283.488L801.389 255.216Z" fill="white"/>
<path d="M790.27 261.832L789.561 262.581L821.168 295.958L821.877 295.209L790.27 261.832Z" fill="white"/>
<path d="M784.355 273.937L783.646 274.686L809.709 302.209L810.418 301.46L784.355 273.937Z" fill="white"/>
<path d="M772.061 303.841H365.092V315.408H772.061V303.841Z" fill="#E0E0E0"/>
<path d="M759.062 60.3994H756.288V303.745H759.062V60.3994Z" fill="#E0E0E0"/>
<path d="M391.583 71.0725H389.304V290.033H391.583V71.0725Z" fill="#E0E0E0"/>
<path d="M756.25 60.4956H378.09V303.841H756.25V60.4956Z" fill="#F0F0F0"/>
<path d="M743.929 71.0725H389.304V290.033H743.929V71.0725Z" fill="#E0E0E0"/>
<path d="M391.4 199.973V303.126H447.848L391.4 199.973ZM403.695 251.989L423.583 288.396H403.695V251.989Z" fill="#FAFAFA"/>
<path opacity="0.1" d="M611.771 289.482H569.859V289.702C569.279 289.939 568.78 290.357 568.428 290.899C568.077 291.442 567.89 292.085 567.893 292.742V302.438C567.89 303.096 568.077 303.738 568.428 304.281C568.78 304.824 569.279 305.241 569.859 305.478V305.698H612.566C613.174 305.698 613.757 305.443 614.187 304.989C614.617 304.535 614.858 303.919 614.858 303.277V292.742C614.858 291.878 614.533 291.048 613.954 290.437C613.375 289.826 612.59 289.482 611.771 289.482Z" fill="black"/>
<path d="M612.578 296.181V301.861C612.578 302.18 612.519 302.496 612.403 302.791C612.287 303.085 612.117 303.353 611.902 303.578C611.688 303.803 611.434 303.981 611.154 304.101C610.875 304.222 610.575 304.284 610.273 304.282H567.566V296.167L612.578 296.181Z" fill="#F0F0F0"/>
<path d="M567.566 296.18V288.107H609.492C610.31 288.107 611.095 288.45 611.674 289.062C612.253 289.673 612.578 290.502 612.578 291.367V296.208L567.566 296.18Z" fill="#E0E0E0"/>
<path d="M580.968 296.181V301.036C580.965 301.899 580.639 302.726 580.06 303.337C579.482 303.947 578.699 304.292 577.881 304.295H568.686C568.281 304.295 567.88 304.211 567.505 304.047C567.131 303.883 566.79 303.643 566.504 303.341C566.217 303.038 565.99 302.679 565.835 302.283C565.679 301.888 565.6 301.464 565.6 301.036V296.181H580.968Z" fill="#FAFAFA"/>
<path d="M565.6 296.181V291.339C565.6 290.911 565.679 290.487 565.835 290.092C565.99 289.696 566.217 289.337 566.504 289.034C566.79 288.732 567.131 288.492 567.505 288.328C567.88 288.164 568.281 288.08 568.686 288.08H577.881C578.699 288.083 579.482 288.428 580.06 289.038C580.639 289.649 580.965 290.476 580.968 291.339V296.181H565.6Z" fill="#EBEBEB"/>
<path d="M612.566 297.501H581.242V298.189H612.566V297.501Z" fill="#E6E6E6"/>
<path d="M552.528 520.139C691.995 520.139 805.055 513.168 805.055 504.569C805.055 495.971 691.995 489 552.528 489C413.06 489 300 495.971 300 504.569C300 513.168 413.06 520.139 552.528 520.139Z" fill="#F5F5F5"/>
<path d="M585.553 114.548C585.553 115.579 585.384 116.611 585.266 117.629C585.149 118.646 584.993 119.664 584.85 120.71C584.706 121.755 584.576 122.773 584.42 123.804C584.264 124.836 584.12 125.881 584.029 126.912C584.043 127.16 584.043 127.408 584.029 127.655C584.016 127.903 584.016 128.151 584.029 128.398C584.042 128.636 584.042 128.875 584.029 129.113C584.029 129.361 584.029 129.594 583.964 129.828C583.936 130.133 583.875 130.433 583.782 130.722C583.69 131.011 583.577 131.292 583.443 131.561C583.321 131.86 583.133 132.124 582.896 132.331C582.67 132.543 582.397 132.69 582.102 132.758C581.69 132.839 581.265 132.776 580.89 132.579C580.528 132.394 580.229 132.096 580.031 131.726C579.926 131.461 579.847 131.184 579.796 130.901C579.755 130.61 579.733 130.316 579.731 130.021C579.712 129.719 579.712 129.415 579.731 129.113C579.731 128.811 579.731 128.522 579.731 128.219C579.809 127.311 579.914 126.404 580.018 125.468C580.122 124.533 580.239 123.625 580.369 122.718C580.5 121.81 580.617 120.833 580.747 119.884C580.877 118.935 580.995 118 581.073 117.051C581.073 116.79 581.073 116.528 581.073 116.253C581.073 115.978 581.073 115.689 581.073 115.428C581.099 115.163 581.099 114.896 581.073 114.63C581.048 114.373 580.982 114.122 580.877 113.888C580.708 113.723 580.539 113.558 580.369 113.365C580.195 113.191 580.034 113.002 579.887 112.801C579.753 112.599 579.647 112.376 579.575 112.141C579.522 111.887 579.522 111.624 579.575 111.371C579.606 111.007 579.69 110.649 579.822 110.312C579.963 109.971 580.147 109.652 580.369 109.363C580.588 109.07 580.852 108.819 581.151 108.62C581.451 108.419 581.789 108.288 582.141 108.235C582.315 108.282 582.485 108.347 582.649 108.427L583.131 108.689C583.53 108.936 583.893 109.242 584.212 109.596C584.523 109.959 584.789 110.361 585.006 110.793C585.223 111.229 585.389 111.691 585.501 112.168C585.607 112.665 585.655 113.173 585.644 113.681C585.637 113.823 585.637 113.966 585.644 114.108L585.553 114.548Z" fill="#3A4B59"/>
<path d="M601.053 120.627C601.018 120.873 600.943 121.11 600.831 121.329C600.715 121.55 600.57 121.754 600.401 121.934C600.227 122.102 600.029 122.241 599.815 122.346C599.598 122.453 599.364 122.513 599.125 122.525C598.752 122.525 598.374 122.525 597.992 122.525C597.614 122.525 597.236 122.525 596.846 122.525C596.846 122.869 596.768 123.213 596.754 123.571C596.739 123.925 596.704 124.279 596.65 124.63C596.604 124.919 596.493 125.193 596.325 125.427C596.156 125.66 595.959 125.868 595.739 126.046C595.514 126.243 595.264 126.405 594.996 126.528C594.733 126.647 594.449 126.708 594.163 126.706C593.787 126.641 593.451 126.424 593.225 126.101C593 125.785 592.848 125.418 592.782 125.028C592.692 124.609 592.649 124.18 592.652 123.749C592.652 123.309 592.652 122.897 592.652 122.525H591.675H590.672C590.4 122.517 590.134 122.431 589.904 122.278C589.671 122.139 589.47 121.946 589.318 121.714C589.157 121.485 589.026 121.236 588.927 120.971C588.825 120.696 588.793 120.397 588.836 120.105C588.957 119.685 589.204 119.319 589.539 119.059C589.874 118.808 590.249 118.622 590.646 118.509C591.072 118.391 591.509 118.317 591.949 118.289L593.16 118.165V117.835C593.205 117.424 593.27 117.015 593.355 116.611C593.445 116.182 593.585 115.766 593.772 115.373C593.961 115.01 594.212 114.688 594.514 114.424C594.846 114.157 595.257 114.025 595.673 114.053C595.898 114.052 596.121 114.104 596.325 114.204C596.523 114.304 596.704 114.439 596.859 114.603C597.013 114.76 597.137 114.946 597.223 115.153C597.307 115.372 597.351 115.605 597.354 115.841C597.306 116.247 597.285 116.656 597.288 117.065C597.29 117.475 597.259 117.884 597.197 118.289H597.562C597.957 118.264 598.353 118.264 598.747 118.289C599.147 118.338 599.537 118.45 599.906 118.619C600.246 118.776 600.545 119.017 600.779 119.321C600.915 119.503 601.01 119.715 601.057 119.941C601.104 120.167 601.103 120.402 601.053 120.627Z" fill="#3A4B59"/>
<path d="M610.99 114.548C610.99 115.579 610.82 116.611 610.703 117.629C610.586 118.646 610.443 119.664 610.286 120.71C610.13 121.755 610.013 122.773 609.856 123.804C609.7 124.836 609.557 125.881 609.466 126.912C609.479 127.16 609.479 127.408 609.466 127.655C609.452 127.903 609.452 128.151 609.466 128.398C609.478 128.636 609.478 128.875 609.466 129.113C609.466 129.361 609.466 129.594 609.401 129.828C609.372 130.133 609.311 130.433 609.218 130.722C609.127 131.011 609.014 131.292 608.88 131.561C608.757 131.86 608.57 132.124 608.333 132.331C608.107 132.543 607.833 132.69 607.538 132.758C607.127 132.839 606.702 132.776 606.327 132.579C605.968 132.389 605.669 132.093 605.467 131.726C605.362 131.461 605.283 131.184 605.233 130.901C605.192 130.61 605.17 130.316 605.168 130.021C605.148 129.719 605.148 129.415 605.168 129.113C605.168 128.811 605.168 128.522 605.168 128.219C605.246 127.311 605.35 126.404 605.454 125.468C605.558 124.533 605.676 123.625 605.806 122.718C605.936 121.81 606.053 120.833 606.184 119.884C606.314 118.935 606.431 118 606.509 117.051C606.509 116.79 606.509 116.528 606.509 116.253C606.509 115.978 606.509 115.689 606.509 115.428C606.535 115.163 606.535 114.896 606.509 114.63C606.484 114.373 606.418 114.122 606.314 113.888C606.145 113.723 605.975 113.558 605.806 113.365C605.631 113.191 605.47 113.002 605.324 112.801C605.189 112.599 605.084 112.376 605.011 112.141C604.958 111.887 604.958 111.624 605.011 111.371C605.043 111.007 605.126 110.649 605.259 110.312C605.4 109.971 605.584 109.652 605.806 109.363C606.024 109.07 606.289 108.819 606.587 108.62C606.888 108.419 607.225 108.288 607.577 108.235C607.752 108.282 607.922 108.347 608.085 108.427L608.567 108.689C608.966 108.936 609.33 109.242 609.648 109.596C609.959 109.959 610.226 110.361 610.443 110.793C610.665 111.226 610.832 111.689 610.937 112.168C611.044 112.665 611.092 113.173 611.081 113.681C611.074 113.823 611.074 113.966 611.081 114.108L610.99 114.548Z" fill="#3A4B59"/>
<path d="M627.452 123.447C627.375 123.73 627.242 123.992 627.062 124.217C626.892 124.449 626.69 124.653 626.462 124.822C626.238 124.99 625.992 125.124 625.733 125.221C625.476 125.328 625.202 125.384 624.926 125.386C623.623 125.482 622.412 125.524 621.162 125.51C619.911 125.496 618.687 125.51 617.45 125.358C617.172 125.34 616.902 125.26 616.655 125.125C616.418 125.004 616.202 124.841 616.017 124.643C615.831 124.436 615.678 124.199 615.561 123.942C615.449 123.673 615.387 123.383 615.379 123.089C615.358 122.872 615.408 122.653 615.522 122.47C615.624 122.293 615.762 122.143 615.926 122.03C616.09 121.901 616.27 121.794 616.46 121.714L617.02 121.507C617.449 121.386 617.883 121.289 618.322 121.219C618.754 121.154 619.189 121.122 619.625 121.122H620.328L621.031 121.191C621.513 121.191 622.008 121.191 622.516 121.191H623.324H623.714C623.848 121.211 623.984 121.211 624.118 121.191H624.86C625.128 121.212 625.393 121.254 625.655 121.315C625.908 121.37 626.157 121.448 626.397 121.549C626.62 121.641 626.827 121.771 627.009 121.934C627.181 122.102 627.307 122.316 627.374 122.553C627.466 122.84 627.493 123.146 627.452 123.447ZM628.077 117.945C628.115 118.218 628.074 118.495 627.96 118.743C627.843 118.971 627.678 119.169 627.478 119.321C627.271 119.481 627.037 119.598 626.788 119.664C626.543 119.711 626.291 119.711 626.046 119.664H617.528C617.271 119.679 617.015 119.622 616.785 119.499C616.569 119.387 616.378 119.228 616.225 119.032C616.077 118.83 615.974 118.595 615.926 118.344C615.861 118.083 615.861 117.808 615.926 117.546C615.96 117.316 616.05 117.098 616.186 116.914C616.32 116.734 616.478 116.576 616.655 116.446C616.835 116.312 617.027 116.197 617.228 116.102L617.814 115.827C618.236 115.664 618.672 115.549 619.117 115.483L620.419 115.318H621.083C621.305 115.304 621.526 115.304 621.748 115.318C622.19 115.318 622.633 115.318 623.05 115.318H623.467C623.61 115.332 623.754 115.332 623.897 115.318H624.326H624.769C625.15 115.325 625.53 115.371 625.902 115.456C626.281 115.533 626.646 115.672 626.983 115.868C627.305 116.057 627.581 116.32 627.791 116.639C628.019 117.019 628.119 117.47 628.077 117.918V117.945Z" fill="#3A4B59"/>
<path d="M647.835 129.182C647.502 129.563 647.116 129.888 646.689 130.145C646.275 130.405 645.839 130.626 645.387 130.805C644.931 130.984 644.462 131.149 643.993 131.3C643.524 131.452 643.055 131.589 642.613 131.74C641.571 132.029 640.529 132.277 639.461 132.456C638.403 132.647 637.329 132.717 636.257 132.662C635.915 132.67 635.58 132.569 635.293 132.373C635.025 132.188 634.798 131.944 634.629 131.658C634.447 131.356 634.324 131.02 634.264 130.668C634.22 130.311 634.22 129.951 634.264 129.595C634.3 129.129 634.379 128.669 634.499 128.219C634.612 127.751 634.755 127.291 634.928 126.844C635.109 126.414 635.313 125.997 635.541 125.592C635.762 125.18 635.996 124.781 636.231 124.396L638.041 121.645L639.865 118.894C640.112 118.509 640.359 118.097 640.594 117.67C640.839 117.265 641.056 116.842 641.245 116.405C641.44 115.958 641.61 115.498 641.753 115.03C641.889 114.582 641.985 114.121 642.04 113.654C642.066 113.504 642.066 113.35 642.04 113.2C642.014 113.064 641.965 112.934 641.896 112.815C641.828 112.704 641.734 112.614 641.623 112.554C641.5 112.469 641.351 112.435 641.206 112.458C640.864 112.469 640.524 112.516 640.19 112.595C639.853 112.678 639.522 112.788 639.2 112.925L638.302 113.324C638.004 113.483 637.742 113.709 637.533 113.984L637.403 114.301L637.286 114.589L637.195 114.878C637.131 115.116 637.02 115.336 636.869 115.525C636.728 115.726 636.561 115.907 636.374 116.061C636.179 116.198 635.969 116.309 635.749 116.391C635.531 116.472 635.302 116.514 635.072 116.515C634.763 116.544 634.454 116.472 634.186 116.309C634.051 116.229 633.932 116.12 633.838 115.99C633.744 115.86 633.676 115.711 633.639 115.552C633.495 115.277 633.41 114.972 633.392 114.658C633.359 114.338 633.359 114.015 633.392 113.695C633.47 113.203 633.648 112.734 633.912 112.32C634.179 111.875 634.503 111.472 634.876 111.123C635.253 110.765 635.663 110.447 636.101 110.174C636.543 109.913 636.986 109.666 637.403 109.459C638.315 109.028 639.272 108.714 640.255 108.524C641.226 108.341 642.213 108.267 643.199 108.304C643.817 108.303 644.412 108.548 644.866 108.992C645.305 109.423 645.651 109.948 645.882 110.532C646.146 111.122 646.335 111.746 646.442 112.389C646.546 113.047 646.586 113.716 646.559 114.383C646.522 115.206 646.35 116.016 646.051 116.776C645.762 117.552 645.413 118.302 645.009 119.018L643.472 121.301C642.964 122.058 642.456 122.8 641.922 123.557C641.388 124.313 640.972 125.015 640.542 125.757C640.107 126.504 639.77 127.309 639.539 128.151C640.62 127.958 641.688 127.738 642.756 127.49C643.824 127.243 644.892 127.037 645.96 126.885C646.239 126.862 646.517 126.934 646.754 127.092C646.976 127.253 647.17 127.453 647.327 127.683C647.488 127.887 647.619 128.114 647.718 128.357C647.821 128.618 647.861 128.901 647.835 129.182Z" fill="#3A4B59"/>
<path d="M586.986 251.687C586.658 252.068 586.275 252.393 585.853 252.65C585.437 252.908 585.001 253.129 584.55 253.31C584.081 253.489 583.626 253.654 583.144 253.805L581.776 254.245C580.734 254.534 579.679 254.782 578.611 254.96C577.554 255.153 576.479 255.222 575.407 255.167C575.07 255.174 574.738 255.074 574.457 254.878C574.182 254.698 573.95 254.453 573.779 254.163C573.609 253.857 573.49 253.522 573.428 253.173C573.376 252.817 573.376 252.455 573.428 252.1C573.453 251.634 573.527 251.173 573.649 250.724C573.76 250.254 573.908 249.794 574.092 249.349C574.268 248.92 574.468 248.502 574.691 248.097C574.925 247.685 575.147 247.286 575.381 246.901L577.192 244.15L579.028 241.399L579.757 240.175C579.995 239.761 580.212 239.334 580.409 238.896C580.602 238.45 580.768 237.99 580.904 237.521C581.046 237.075 581.142 236.613 581.19 236.145C581.216 235.995 581.216 235.841 581.19 235.691C581.164 235.555 581.116 235.425 581.047 235.306C580.979 235.196 580.884 235.105 580.773 235.045C580.645 234.962 580.493 234.928 580.343 234.949C580.002 234.961 579.661 235.007 579.328 235.086C578.994 235.167 578.667 235.278 578.351 235.416C578.051 235.54 577.752 235.664 577.452 235.815C577.148 235.97 576.881 236.196 576.671 236.475L576.54 236.792L576.423 237.081L576.345 237.369C576.276 237.605 576.166 237.824 576.019 238.016C575.877 238.217 575.706 238.393 575.511 238.539C575.324 238.69 575.112 238.807 574.886 238.882C574.673 238.963 574.449 239.005 574.222 239.006C573.91 239.037 573.596 238.965 573.323 238.8C573.188 238.72 573.07 238.612 572.976 238.482C572.882 238.351 572.814 238.202 572.776 238.043C572.63 237.77 572.55 237.463 572.542 237.149C572.516 236.829 572.516 236.507 572.542 236.187C572.621 235.694 572.798 235.225 573.063 234.811C573.337 234.373 573.661 233.971 574.027 233.615C574.408 233.256 574.823 232.938 575.264 232.666C575.686 232.403 576.121 232.165 576.566 231.95C577.483 231.521 578.445 231.207 579.432 231.015C580.398 230.833 581.381 230.759 582.362 230.795C582.981 230.791 583.577 231.037 584.029 231.483C584.476 231.907 584.823 232.434 585.045 233.023C585.314 233.611 585.503 234.236 585.605 234.88C585.71 235.539 585.749 236.207 585.723 236.874C585.684 237.695 585.516 238.504 585.228 239.267C584.929 240.041 584.576 240.79 584.173 241.509L582.636 243.792C582.141 244.549 581.62 245.292 581.086 246.048C580.552 246.805 580.148 247.506 579.705 248.249C579.276 248.998 578.939 249.802 578.702 250.642C579.783 250.449 580.864 250.229 581.932 249.982C583 249.734 584.055 249.528 585.136 249.376C585.411 249.356 585.685 249.429 585.918 249.583C586.143 249.74 586.337 249.94 586.491 250.174C586.66 250.374 586.796 250.602 586.895 250.848C586.985 251.117 587.016 251.404 586.986 251.687Z" fill="#3A4B59"/>
<path d="M603.266 243.132C603.238 243.379 603.163 243.618 603.045 243.834C602.928 244.055 602.784 244.259 602.615 244.439C602.441 244.607 602.243 244.746 602.029 244.851C601.816 244.957 601.586 245.018 601.351 245.03C600.961 245.03 600.583 245.03 600.205 245.03C599.828 245.03 599.45 245.03 599.059 245.03C599.059 245.374 599.059 245.718 598.968 246.075C598.953 246.43 598.918 246.784 598.864 247.134C598.824 247.426 598.712 247.701 598.538 247.932C598.37 248.165 598.173 248.373 597.952 248.551C597.73 248.745 597.485 248.907 597.223 249.032C596.955 249.152 596.667 249.213 596.376 249.211C596.001 249.146 595.664 248.929 595.438 248.606C595.22 248.286 595.069 247.92 594.996 247.533C594.912 247.112 594.869 246.684 594.865 246.254C594.865 245.814 594.865 245.401 594.865 245.03H593.902H592.899C592.622 245.02 592.353 244.934 592.117 244.783C591.884 244.644 591.684 244.451 591.531 244.219C591.38 243.987 591.253 243.737 591.153 243.476C591.035 243.205 591.003 242.901 591.062 242.609C591.184 242.19 591.431 241.823 591.766 241.564C592.098 241.316 592.468 241.129 592.86 241.014C593.286 240.897 593.722 240.823 594.162 240.794L595.373 240.67V240.34C595.418 239.929 595.484 239.52 595.569 239.116C595.657 238.684 595.802 238.268 595.999 237.878C596.179 237.509 596.432 237.186 596.741 236.929C597.071 236.659 597.484 236.526 597.9 236.558C598.121 236.557 598.339 236.609 598.538 236.709C598.739 236.805 598.92 236.94 599.072 237.108C599.227 237.264 599.35 237.451 599.437 237.658C599.526 237.875 599.571 238.109 599.567 238.346C599.567 238.758 599.502 239.171 599.502 239.57C599.501 239.979 599.475 240.388 599.424 240.794H599.789C600.18 240.791 600.572 240.814 600.961 240.863C601.36 240.912 601.751 241.023 602.12 241.193C602.462 241.346 602.762 241.587 602.993 241.894C603.119 242.068 603.209 242.269 603.256 242.482C603.303 242.695 603.306 242.917 603.266 243.132Z" fill="#3A4B59"/>
<path d="M621.865 251.687C621.537 252.068 621.155 252.393 620.732 252.65C620.317 252.91 619.881 253.131 619.43 253.31C618.974 253.489 618.505 253.654 618.036 253.805L616.655 254.245C615.617 254.54 614.565 254.779 613.504 254.961C612.446 255.152 611.371 255.222 610.3 255.167C609.958 255.173 609.623 255.072 609.336 254.878C609.068 254.693 608.841 254.449 608.671 254.163C608.501 253.857 608.382 253.522 608.32 253.173C608.262 252.818 608.262 252.455 608.32 252.1C608.345 251.634 608.419 251.173 608.541 250.724C608.652 250.254 608.8 249.794 608.984 249.349C609.16 248.92 609.36 248.502 609.583 248.097C609.805 247.685 610.039 247.286 610.273 246.901L612.084 244.15L613.92 241.399C614.155 241.014 614.402 240.602 614.637 240.175C614.883 239.764 615.105 239.337 615.301 238.896C615.495 238.45 615.66 237.99 615.796 237.521C615.932 237.073 616.028 236.612 616.082 236.145C616.115 235.996 616.115 235.841 616.082 235.691C616.061 235.556 616.017 235.426 615.952 235.306C615.884 235.196 615.79 235.105 615.679 235.045C615.55 234.962 615.398 234.928 615.249 234.949C614.907 234.961 614.567 235.007 614.233 235.086C613.895 235.169 613.564 235.28 613.243 235.416C612.943 235.54 612.657 235.664 612.357 235.815C612.053 235.97 611.786 236.196 611.576 236.475L611.446 236.792L611.328 237.081L611.25 237.369C611.176 237.602 611.066 237.821 610.925 238.016C610.779 238.214 610.608 238.39 610.417 238.539C610.227 238.688 610.016 238.804 609.792 238.882C609.578 238.963 609.354 239.005 609.127 239.006C608.815 239.037 608.501 238.965 608.229 238.8C608.093 238.72 607.975 238.612 607.881 238.482C607.787 238.351 607.719 238.202 607.682 238.043C607.536 237.77 607.455 237.463 607.447 237.149C607.408 236.83 607.408 236.506 607.447 236.187C607.526 235.694 607.703 235.225 607.968 234.811C608.239 234.37 608.563 233.967 608.932 233.615C609.309 233.256 609.719 232.938 610.156 232.666C610.599 232.404 611.042 232.157 611.459 231.95C612.371 231.519 613.328 231.205 614.311 231.015C615.282 230.833 616.269 230.759 617.254 230.795C617.873 230.791 618.469 231.037 618.922 231.483C619.36 231.914 619.707 232.439 619.937 233.023C620.207 233.611 620.395 234.236 620.498 234.88C620.602 235.539 620.641 236.207 620.615 236.874C620.576 237.695 620.409 238.504 620.12 239.267C619.821 240.041 619.468 240.79 619.065 241.509L617.528 243.792C617.033 244.549 616.512 245.292 615.978 246.048C615.444 246.805 615.04 247.506 614.598 248.249C614.169 248.998 613.832 249.802 613.595 250.642C614.676 250.449 615.757 250.229 616.812 249.982C617.867 249.734 618.948 249.528 620.029 249.376C620.303 249.356 620.577 249.429 620.81 249.583C621.035 249.74 621.229 249.94 621.383 250.174C621.552 250.371 621.685 250.6 621.774 250.848C621.87 251.115 621.901 251.404 621.865 251.687Z" fill="#3A4B59"/>
<path d="M639.109 245.951C639.031 246.231 638.903 246.493 638.731 246.722C638.557 246.954 638.351 247.158 638.119 247.327C637.895 247.495 637.649 247.629 637.39 247.726C637.135 247.825 636.867 247.881 636.595 247.891C635.293 247.987 634.069 248.028 632.818 248.015C631.568 248.001 630.344 248.015 629.106 247.863C628.829 247.844 628.559 247.765 628.312 247.629C627.827 247.387 627.443 246.967 627.231 246.447C627.114 246.178 627.048 245.889 627.036 245.594C627.021 245.377 627.071 245.16 627.179 244.975C627.28 244.798 627.418 244.648 627.583 244.535C627.749 244.408 627.928 244.302 628.117 244.218L628.677 244.012C629.105 243.891 629.54 243.794 629.979 243.723C630.411 243.659 630.846 243.627 631.282 243.627H631.998L632.701 243.696C633.17 243.696 633.665 243.696 634.173 243.696H634.98H635.371C635.505 243.716 635.641 243.716 635.775 243.696H636.517C636.785 243.717 637.05 243.758 637.312 243.82C637.565 243.875 637.814 243.953 638.054 244.053C638.279 244.14 638.487 244.271 638.666 244.439C638.838 244.606 638.964 244.82 639.031 245.057C639.123 245.345 639.15 245.651 639.109 245.951ZM639.734 240.45C639.779 240.722 639.738 241.002 639.617 241.248C639.5 241.476 639.335 241.674 639.135 241.825C638.93 241.989 638.695 242.106 638.445 242.169C638.199 242.216 637.948 242.216 637.703 242.169H629.185C628.932 242.185 628.68 242.128 628.455 242.004C628.233 241.896 628.037 241.736 627.882 241.536C627.734 241.335 627.631 241.099 627.583 240.849C627.531 240.586 627.531 240.314 627.583 240.051C627.617 239.82 627.707 239.603 627.843 239.418C627.977 239.239 628.135 239.081 628.312 238.951C628.492 238.812 628.684 238.693 628.885 238.593L629.471 238.318C629.893 238.155 630.329 238.04 630.774 237.974L632.076 237.809H632.74C632.961 237.795 633.183 237.795 633.404 237.809C633.847 237.809 634.303 237.809 634.707 237.809H635.137C635.275 237.823 635.415 237.823 635.553 237.809H635.983H636.426C636.807 237.816 637.187 237.862 637.559 237.947C637.938 238.021 638.303 238.161 638.64 238.359C638.962 238.548 639.238 238.811 639.448 239.13C639.678 239.514 639.779 239.97 639.734 240.422V240.45Z" fill="#3A4B59"/>
<path d="M658.216 244.466C658.127 244.906 657.964 245.325 657.734 245.704C657.513 246.096 657.18 246.404 656.783 246.584C656.735 246.751 656.7 246.921 656.679 247.093L656.601 247.602C656.601 247.974 656.601 248.345 656.601 248.73L656.523 249.858C656.523 250.229 656.523 250.587 656.523 250.944C656.523 251.302 656.458 251.673 656.418 252.045C656.378 252.385 656.308 252.721 656.21 253.049C656.11 253.387 655.961 253.708 655.767 253.998C655.587 254.287 655.357 254.539 655.09 254.74C654.771 254.975 654.399 255.115 654.011 255.144C653.623 255.173 653.236 255.091 652.889 254.905C652.696 254.808 652.525 254.668 652.388 254.495C652.251 254.322 652.151 254.119 652.094 253.901C651.936 253.463 651.865 252.995 651.886 252.526C651.886 252.003 651.886 251.494 651.964 251.013C652.042 250.532 652.081 249.885 652.159 249.363C652.218 249.09 652.261 248.815 652.29 248.537L652.407 247.726C652.387 247.58 652.387 247.432 652.407 247.286C652.428 247.145 652.428 247.001 652.407 246.859C652.212 246.846 652.016 246.846 651.821 246.859H651.248C650.531 246.859 649.815 246.859 649.112 246.763C648.414 246.703 647.724 246.564 647.054 246.351L646.116 246.062C645.796 245.956 645.482 245.827 645.178 245.677C644.884 245.534 644.604 245.359 644.345 245.154C644.095 244.941 643.876 244.691 643.694 244.411C643.572 244.174 643.5 243.911 643.485 243.641C643.466 243.353 643.466 243.063 643.485 242.775C643.559 242.074 643.699 241.383 643.902 240.712C644.11 240.024 644.345 239.336 644.605 238.69C644.866 238.043 645.205 237.314 645.53 236.668C645.856 236.021 646.233 235.375 646.624 234.742C646.815 234.412 647.024 234.096 647.249 233.793C647.471 233.477 647.705 233.188 647.953 232.899C648.2 232.611 648.395 232.377 648.63 232.115C648.871 231.867 649.16 231.674 649.476 231.552C649.784 231.535 650.09 231.606 650.362 231.758C650.62 231.906 650.861 232.086 651.078 232.294C651.285 232.535 651.469 232.798 651.625 233.078C651.779 233.367 651.852 233.696 651.834 234.027C651.695 234.628 651.481 235.206 651.196 235.746C650.896 236.283 650.61 236.833 650.323 237.383C650.037 237.933 649.659 238.635 649.359 239.267C649.056 239.893 648.786 240.535 648.552 241.193C649.203 241.317 649.854 241.427 650.518 241.495L652.511 241.757C652.605 241.275 652.675 240.788 652.72 240.299L652.837 238.827C652.837 238.36 652.915 237.878 652.941 237.452C652.967 237.026 652.941 236.475 653.032 236.008C653.123 235.54 653.136 234.949 653.214 234.426C653.294 233.886 653.412 233.353 653.566 232.831C653.626 232.587 653.723 232.354 653.853 232.143C653.981 231.931 654.145 231.745 654.335 231.593C654.515 231.43 654.723 231.304 654.947 231.221C655.17 231.15 655.405 231.126 655.637 231.153C655.948 231.182 656.247 231.291 656.51 231.469C656.762 231.63 656.982 231.84 657.161 232.088C657.341 232.345 657.478 232.634 657.565 232.941C657.645 233.254 657.68 233.579 657.669 233.903C657.669 234.522 657.669 235.141 657.578 235.76C657.486 236.379 657.486 236.998 657.421 237.617C657.356 238.236 657.317 238.869 657.252 239.487C657.187 240.106 657.135 240.739 657.083 241.372C657.07 241.546 657.07 241.72 657.083 241.894C657.102 242.068 657.102 242.243 657.083 242.417C657.47 242.618 657.799 242.927 658.033 243.311C658.199 243.669 658.262 244.071 658.216 244.466Z" fill="#3A4B59"/>
<path d="M310.71 459.411C301.088 442.75 294.103 423.42 296.157 404.024L359.461 394.921C373.464 398.597 387.091 405.758 396.167 417.6C405.247 429.441 408.994 446.464 403.202 460.421C410.902 462.124 418.451 465.333 424.386 470.793C430.317 476.252 434.488 484.146 434.614 492.452C434.685 497.074 433.175 502.169 429.355 504.425C424.957 507.021 419.521 504.936 414.806 503.067C390.083 493.273 363.348 490.478 338.248 481.814C331.83 479.595 325.387 476.911 320.281 472.245C316.364 468.668 313.405 464.078 310.71 459.411Z" fill="#80E19E"/>
<path d="M207.39 479.411C217.012 462.75 223.996 443.42 221.942 424.024L158.639 414.921C144.636 418.597 131.009 425.758 121.932 437.6C112.853 449.441 109.105 466.464 114.898 480.421C107.198 482.124 99.6484 485.333 93.7135 490.793C87.7828 496.252 83.6115 504.146 83.4859 512.452C83.4149 517.074 84.9244 522.169 88.745 524.425C93.1423 527.021 98.5781 524.936 103.294 523.067C128.017 513.273 154.751 510.478 179.851 501.814C186.27 499.595 192.713 496.911 197.819 492.245C201.735 488.668 204.694 484.078 207.39 479.411Z" fill="#80E19E"/>
<g filter="url(#filter0_d_196_740)">
<path d="M430.064 376.992C397.956 462.792 371.114 460.597 338.369 476.933C305.624 493.269 206.824 501.914 171.083 487.054C121.117 466.28 115.097 439.74 96.6629 376.992C81.0885 323.978 69.6981 289.697 77.8099 234.039C88.6568 159.614 118.821 116.889 171.083 80.9647C172.741 79.8252 174.394 78.7165 176.044 77.6388L194.897 0C204.158 17.7111 222.68 53.5325 222.68 55.1296C259.732 43.8528 295.841 49.1775 333.814 70.9726L344.729 22.7714C354.982 42.1691 376.481 85.3397 380.45 102.84C407.507 123.819 440.572 203.677 445.533 241.629C450.494 279.582 455.093 310.108 430.064 376.992Z" fill="#80E19E"/>
</g>
<path d="M366.675 352.687C363.54 383.41 379.32 436.414 345.984 467.428C321.051 490.624 296.081 487.734 262.28 491.881C227.981 496.088 202.214 507.89 173.873 488.119C140.894 465.112 134.686 413.506 144.718 389.366C154.75 365.227 151.006 327.011 179.516 306.602C195.571 295.109 208.166 291.887 227.481 287.793C263.052 280.252 289.805 271.265 320.591 290.614C343.878 305.25 369.81 321.964 366.675 352.687Z" fill="#9DF4C8"/>
<path d="M325.821 163.999C322.321 166.499 319.821 169.499 319.321 173.999C318.848 178.26 328.821 179.499 328.821 179.499L333.321 167.499C333.321 167.499 327.221 162.999 325.821 163.999Z" fill="white"/>
<path d="M327.937 174.52C330.397 172.206 329.85 167.614 326.698 164.261C326.534 164.088 326.37 163.924 326.197 163.769C327.6 162.977 329.14 162.53 330.761 162.53C337.312 162.53 342.624 169.755 342.624 178.657C342.624 187.558 337.312 194.783 330.761 194.783C324.211 194.783 318.899 187.558 318.899 178.657C318.899 177.062 319.072 175.514 319.391 174.056C322.343 176.179 325.869 176.461 327.937 174.52Z" fill="url(#paint0_linear_196_740)"/>
<path d="M235.805 163.854C232.305 166.354 229.805 169.354 229.305 173.854C228.832 178.115 238.805 179.354 238.805 179.354L243.305 167.354C243.305 167.354 237.205 162.854 235.805 163.854Z" fill="white"/>
<path d="M237.706 174.52C240.166 172.206 239.619 167.614 236.466 164.261C236.302 164.088 236.138 163.924 235.965 163.769C237.368 162.977 238.908 162.53 240.53 162.53C247.081 162.53 252.393 169.755 252.393 178.657C252.393 187.558 247.081 194.783 240.53 194.783C233.979 194.783 228.667 187.558 228.667 178.657C228.667 177.062 228.84 175.514 229.159 174.056C232.102 176.179 235.637 176.461 237.706 174.52Z" fill="url(#paint1_linear_196_740)"/>
<path d="M572.704 119.117L501.333 195.332L502.271 196.312L573.642 120.097L572.704 119.117Z" fill="#263238"/>
<g filter="url(#filter1_d_196_740)">
<path d="M282.879 262.237C282.516 262.995 281.438 262.995 281.075 262.237L254.97 207.712C254.652 207.049 255.136 206.28 255.872 206.28H308.083C308.818 206.28 309.302 207.049 308.984 207.712L282.879 262.237Z" fill="#FF9A00"/>
</g>
<path d="M426.373 220.514C443.669 227.311 463.837 221.915 478.456 210.021C493.074 198.126 502.74 180.562 509.144 162.283C515.259 178.841 513 198.561 503.324 213.104C507.984 208.809 512.046 203.793 515.343 198.266C516.909 208.988 512.862 219.798 507.434 229.006C490.385 257.923 458.216 267.62 425.493 243.223" fill="#80E19E"/>
<path d="M92.7854 234.869C88.0685 253.709 72.2618 267.995 54.6288 273.746C36.9958 279.497 17.8337 277.705 7.28179e-05 272.687C9.2814 287.512 25.84 296.937 42.6703 296.978C36.6605 298.52 30.4374 299.132 24.26 298.788C31.6516 306.323 42.3477 309.067 52.6019 309.695C84.8046 311.666 110.86 289.507 110.86 247.207" fill="#80E19E"/>
<path d="M274.154 132.273C281.698 114.488 277.905 92.8855 267.613 76.7096C257.32 60.5337 241.349 49.2098 224.49 41.2775C240.533 35.906 259.022 39.5642 272.137 50.7029C268.381 45.5147 263.904 40.9087 258.895 37.076C269.128 36.121 279.081 41.0856 287.431 47.4029C313.652 67.2419 320.731 101.77 295.556 134.672" fill="#80E19E"/>
<path d="M762.62 481.845C768.993 470.81 773.619 458.007 772.259 445.16L730.329 439.13C721.054 441.565 712.028 446.308 706.016 454.152C700.002 461.995 697.52 473.27 701.357 482.514C696.257 483.642 691.256 485.768 687.325 489.384C683.397 493 680.634 498.229 680.551 503.73C680.504 506.792 681.504 510.166 684.035 511.661C686.947 513.38 690.548 511.999 693.671 510.762C710.047 504.274 727.754 502.423 744.379 496.684C748.631 495.215 752.898 493.437 756.28 490.346C758.874 487.977 760.834 484.937 762.62 481.845Z" fill="#7894C6"/>
<path d="M844.977 485.909C838.604 474.873 833.978 462.07 835.338 449.223L877.267 443.194C886.543 445.628 895.568 450.371 901.58 458.215C907.594 466.058 910.076 477.334 906.24 486.578C911.34 487.706 916.34 489.831 920.271 493.448C924.199 497.064 926.962 502.292 927.046 507.794C927.093 510.855 926.093 514.23 923.562 515.724C920.65 517.444 917.049 516.063 913.926 514.825C897.55 508.338 879.842 506.487 863.217 500.747C858.966 499.278 854.698 497.5 851.316 494.41C848.722 492.04 846.762 489 844.977 485.909Z" fill="#7894C6"/>
<g filter="url(#filter2_d_196_740)">
<path d="M683.565 416.703C704.832 473.533 722.611 472.08 744.3 482.9C765.988 493.72 831.429 499.446 855.103 489.603C888.198 475.844 892.185 458.264 904.395 416.703C914.711 381.589 922.256 358.882 916.883 322.017C909.698 272.722 889.719 244.422 855.103 220.627C854.005 219.873 852.909 219.138 851.817 218.425L839.329 167C833.195 178.731 820.927 202.458 820.927 203.515C796.386 196.046 772.469 199.573 747.317 214.009L740.087 182.083C733.296 194.931 719.056 223.525 716.427 235.116C698.506 249.012 676.605 301.907 673.319 327.045C670.033 352.183 666.987 372.402 683.565 416.703Z" fill="#7894C6"/>
</g>
<path d="M725.551 400.604C727.627 420.954 717.175 456.061 739.256 476.603C755.771 491.967 772.309 490.054 794.698 492.8C817.416 495.587 834.482 503.404 853.255 490.308C875.099 475.07 879.211 440.888 872.566 424.899C865.921 408.91 868.401 383.598 849.517 370.08C838.883 362.467 830.541 360.333 817.747 357.621C794.186 352.626 776.466 346.674 756.075 359.49C740.651 369.184 723.474 380.255 725.551 400.604Z" fill="#D1D0FF"/>
<path d="M759.985 284.781C760.174 281.587 758.525 278.616 755.491 278.044C752.458 277.471 749 282.708 749 282.708L753.494 291C753.494 291 759.775 288.355 759.985 284.781Z" fill="white"/>
<path d="M754.723 285.341C753.094 283.808 753.456 280.766 755.544 278.546C755.653 278.431 755.761 278.322 755.876 278.22C754.946 277.695 753.927 277.399 752.852 277.399C748.513 277.399 744.995 282.185 744.995 288.08C744.995 293.976 748.513 298.762 752.852 298.762C757.191 298.762 760.71 293.976 760.71 288.08C760.71 287.024 760.595 285.998 760.384 285.033C758.429 286.439 756.093 286.626 754.723 285.341Z" fill="url(#paint2_linear_196_740)"/>
<path d="M819.985 284.781C820.174 281.587 818.525 278.616 815.491 278.044C812.458 277.471 809 282.708 809 282.708L813.494 291C813.494 291 819.775 288.355 819.985 284.781Z" fill="white"/>
<path d="M814.489 285.341C812.859 283.808 813.221 280.766 815.31 278.546C815.418 278.431 815.527 278.322 815.641 278.22C814.712 277.695 813.692 277.399 812.618 277.399C808.279 277.399 804.761 282.185 804.761 288.08C804.761 293.976 808.279 298.762 812.618 298.762C816.957 298.762 820.475 293.976 820.475 288.08C820.475 287.024 820.361 285.998 820.149 285.033C818.2 286.439 815.859 286.626 814.489 285.341Z" fill="url(#paint3_linear_196_740)"/>
<g filter="url(#filter3_d_196_740)">
<path d="M789.435 342.033C789.798 342.79 790.877 342.79 791.239 342.033L807.994 307.037C808.312 306.373 807.828 305.605 807.092 305.605H773.582C772.846 305.605 772.363 306.373 772.68 307.037L789.435 342.033Z" fill="#FF9A00"/>
</g>
<path d="M718.523 282.456C706.436 284.376 694.059 277.978 686.116 268.166C678.174 258.353 674.173 245.578 672.379 232.809C666.28 242.662 665.202 255.77 669.599 266.588C667.132 263.134 665.146 259.299 663.721 255.242C661.324 261.967 662.553 269.556 664.884 276.305C672.207 297.501 691.809 308.412 716.166 297.303" fill="#7894C6"/>
<path d="M906.964 333.09C910.088 345.569 920.558 355.032 932.238 358.841C943.917 362.65 956.609 361.463 968.421 358.139C962.274 367.958 951.306 374.202 940.158 374.228C944.139 375.25 948.261 375.655 952.352 375.427C947.457 380.418 940.372 382.236 933.58 382.651C912.25 383.957 894.992 369.28 894.992 341.262" fill="#7894C6"/>
<path d="M786.834 265.134C781.837 253.354 784.349 239.046 791.166 228.331C797.984 217.617 808.562 210.117 819.728 204.863C809.103 201.305 796.856 203.728 788.169 211.106C790.658 207.669 793.623 204.618 796.941 202.08C790.162 201.447 783.57 204.736 778.04 208.92C760.672 222.06 755.983 244.93 772.658 266.723" fill="#7894C6"/>
<path d="M680.245 238.554L652.061 247.494C651.911 247.529 651.755 247.529 651.605 247.494L649 247.233L650.823 245.513C650.94 245.402 651.078 245.318 651.227 245.266L679.255 235.446C679.541 235.347 679.851 235.367 680.122 235.503C680.394 235.638 680.606 235.879 680.714 236.175L680.962 236.862C681.032 237.021 681.07 237.195 681.071 237.371C681.072 237.547 681.038 237.721 680.97 237.881C680.902 238.042 680.802 238.185 680.677 238.301C680.552 238.417 680.405 238.503 680.245 238.554Z" fill="#263238"/>
<defs>
<filter id="filter0_d_196_740" x="71.1211" y="0" width="382.318" height="502.702" filterUnits="userSpaceOnUse" color-interpolation-filters="sRGB">
<feFlood flood-opacity="0" result="BackgroundImageFix"/>
<feColorMatrix in="SourceAlpha" type="matrix" values="0 0 0 0 0 0 0 0 0 0 0 0 0 0 0 0 0 0 127 0" result="hardAlpha"/>
<feOffset dy="4"/>
<feGaussianBlur stdDeviation="2"/>
<feComposite in2="hardAlpha" operator="out"/>
<feColorMatrix type="matrix" values="0 0 0 0 0 0 0 0 0 0 0 0 0 0 0 0 0 0 0.25 0"/>
<feBlend mode="normal" in2="BackgroundImageFix" result="effect1_dropShadow_196_740"/>
<feBlend mode="normal" in="SourceGraphic" in2="effect1_dropShadow_196_740" result="shape"/>
</filter>
<filter id="filter1_d_196_740" x="250.871" y="206.28" width="62.2134" height="64.5249" filterUnits="userSpaceOnUse" color-interpolation-filters="sRGB">
<feFlood flood-opacity="0" result="BackgroundImageFix"/>
<feColorMatrix in="SourceAlpha" type="matrix" values="0 0 0 0 0 0 0 0 0 0 0 0 0 0 0 0 0 0 127 0" result="hardAlpha"/>
<feOffset dy="4"/>
<feGaussianBlur stdDeviation="2"/>
<feComposite in2="hardAlpha" operator="out"/>
<feColorMatrix type="matrix" values="0 0 0 0 0 0 0 0 0 0 0 0 0 0 0 0 0 0 0.25 0"/>
<feBlend mode="normal" in2="BackgroundImageFix" result="effect1_dropShadow_196_740"/>
<feBlend mode="normal" in="SourceGraphic" in2="effect1_dropShadow_196_740" result="shape"/>
</filter>
<filter id="filter2_d_196_740" x="666.731" y="167" width="255.932" height="335.669" filterUnits="userSpaceOnUse" color-interpolation-filters="sRGB">
<feFlood flood-opacity="0" result="BackgroundImageFix"/>
<feColorMatrix in="SourceAlpha" type="matrix" values="0 0 0 0 0 0 0 0 0 0 0 0 0 0 0 0 0 0 127 0" result="hardAlpha"/>
<feOffset dy="4"/>
<feGaussianBlur stdDeviation="2"/>
<feComposite in2="hardAlpha" operator="out"/>
<feColorMatrix type="matrix" values="0 0 0 0 0 0 0 0 0 0 0 0 0 0 0 0 0 0 0.25 0"/>
<feBlend mode="normal" in2="BackgroundImageFix" result="effect1_dropShadow_196_740"/>
<feBlend mode="normal" in="SourceGraphic" in2="effect1_dropShadow_196_740" result="shape"/>
</filter>
<filter id="filter3_d_196_740" x="768.581" y="305.605" width="43.5127" height="44.9951" filterUnits="userSpaceOnUse" color-interpolation-filters="sRGB">
<feFlood flood-opacity="0" result="BackgroundImageFix"/>
<feColorMatrix in="SourceAlpha" type="matrix" values="0 0 0 0 0 0 0 0 0 0 0 0 0 0 0 0 0 0 127 0" result="hardAlpha"/>
<feOffset dy="4"/>
<feGaussianBlur stdDeviation="2"/>
<feComposite in2="hardAlpha" operator="out"/>
<feColorMatrix type="matrix" values="0 0 0 0 0 0 0 0 0 0 0 0 0 0 0 0 0 0 0.25 0"/>
<feBlend mode="normal" in2="BackgroundImageFix" result="effect1_dropShadow_196_740"/>
<feBlend mode="normal" in="SourceGraphic" in2="effect1_dropShadow_196_740" result="shape"/>
</filter>
<linearGradient id="paint0_linear_196_740" x1="330.768" y1="162.527" x2="330.768" y2="194.786" gradientUnits="userSpaceOnUse">
<stop stop-color="#424242"/>
<stop offset="1" stop-color="#212121"/>
</linearGradient>
<linearGradient id="paint1_linear_196_740" x1="240.531" y1="162.527" x2="240.531" y2="194.786" gradientUnits="userSpaceOnUse">
<stop stop-color="#424242"/>
<stop offset="1" stop-color="#212121"/>
</linearGradient>
<linearGradient id="paint2_linear_196_740" x1="752.848" y1="277.397" x2="752.848" y2="298.764" gradientUnits="userSpaceOnUse">
<stop stop-color="#424242"/>
<stop offset="1" stop-color="#212121"/>
</linearGradient>
<linearGradient id="paint3_linear_196_740" x1="812.617" y1="277.397" x2="812.617" y2="298.764" gradientUnits="userSpaceOnUse">
<stop stop-color="#424242"/>
<stop offset="1" stop-color="#212121"/>
</linearGradient>
</defs>
</svg>
