<svg width="24" height="25" viewBox="0 0 24 25" fill="none" xmlns="http://www.w3.org/2000/svg">
<g clip-path="url(#clip0_196_34)">
<path d="M7.55016 22.2497C16.6045 22.2497 21.5583 14.7465 21.5583 8.24162C21.5583 8.03068 21.5536 7.81505 21.5442 7.60412C22.5079 6.90722 23.3395 6.04401 24 5.05505C23.1025 5.45436 22.1496 5.71514 21.1739 5.82849C22.2013 5.21266 22.9705 4.24523 23.3391 3.10552C22.3726 3.67831 21.3156 4.08237 20.2134 4.30037C19.4708 3.51132 18.489 2.98887 17.4197 2.81381C16.3504 2.63874 15.2532 2.82081 14.2977 3.33185C13.3423 3.8429 12.5818 4.65446 12.1338 5.64107C11.6859 6.62767 11.5754 7.73437 11.8195 8.79005C9.86249 8.69185 7.94794 8.18346 6.19998 7.29785C4.45203 6.41225 2.90969 5.16919 1.67297 3.64927C1.0444 4.733 0.852057 6.0154 1.13503 7.23585C1.418 8.45629 2.15506 9.5232 3.19641 10.2197C2.41463 10.1949 1.64998 9.98444 0.965625 9.60568V9.66662C0.964925 10.8039 1.3581 11.9063 2.07831 12.7865C2.79852 13.6667 3.80132 14.2703 4.91625 14.4947C4.19206 14.6929 3.43198 14.7218 2.69484 14.5791C3.00945 15.5572 3.62157 16.4126 4.44577 17.0261C5.26997 17.6395 6.26512 17.9804 7.29234 18.001C5.54842 19.3709 3.39417 20.1139 1.17656 20.1104C0.783287 20.1098 0.390399 20.0857 0 20.0382C2.25286 21.4835 4.87353 22.2511 7.55016 22.2497Z" fill="black"/>
</g>
<defs>
<clipPath id="clip0_196_34">
<rect width="24" height="24" fill="white" transform="translate(0 0.5)"/>
</clipPath>
</defs>
</svg>
