<svg width="33" height="34" viewBox="0 0 33 34" fill="none" xmlns="http://www.w3.org/2000/svg">
<path d="M23.5849 21.2547H22.0943L21.566 20.7453C23.4151 18.5943 24.5283 15.8019 24.5283 12.7642C24.5283 5.99057 19.0377 0.5 12.2642 0.5C5.49057 0.5 0 5.99057 0 12.7642C0 19.5377 5.49057 25.0283 12.2642 25.0283C15.3019 25.0283 18.0943 23.9151 20.2453 22.066L20.7547 22.5943V24.0849L30.1887 33.5L33 30.6887L23.5849 21.2547ZM12.2642 21.2547C7.56604 21.2547 3.77358 17.4623 3.77358 12.7642C3.77358 8.06604 7.56604 4.27358 12.2642 4.27358C16.9623 4.27358 20.7547 8.06604 20.7547 12.7642C20.7547 17.4623 16.9623 21.2547 12.2642 21.2547Z" fill="white"/>
<path d="M23.5849 21.2547H22.0943L21.566 20.7453C23.4151 18.5943 24.5283 15.8019 24.5283 12.7642C24.5283 5.99057 19.0377 0.5 12.2642 0.5C5.49057 0.5 0 5.99057 0 12.7642C0 19.5377 5.49057 25.0283 12.2642 25.0283C15.3019 25.0283 18.0943 23.9151 20.2453 22.066L20.7547 22.5943V24.0849L30.1887 33.5L33 30.6887L23.5849 21.2547ZM12.2642 21.2547C7.56604 21.2547 3.77358 17.4623 3.77358 12.7642C3.77358 8.06604 7.56604 4.27358 12.2642 4.27358C16.9623 4.27358 20.7547 8.06604 20.7547 12.7642C20.7547 17.4623 16.9623 21.2547 12.2642 21.2547Z" fill="black" fill-opacity="0.54"/>
</svg>
